<svg width="995" height="222" viewBox="0 0 995 222" fill="none" xmlns="http://www.w3.org/2000/svg">
<rect width="995" height="222" fill="#E6EDF3"/>
<path d="M316.574 48.1L312.234 49.43C312.071 48.5433 311.628 47.7383 310.904 47.015C310.181 46.2917 309.119 45.93 307.719 45.93C306.576 45.93 305.643 46.245 304.919 46.875C304.196 47.4817 303.834 48.2167 303.834 49.08C303.834 50.5967 304.733 51.53 306.529 51.88L309.994 52.545C312.188 52.965 313.891 53.84 315.104 55.17C316.318 56.5 316.924 58.0633 316.924 59.86C316.924 61.9133 316.108 63.71 314.474 65.25C312.864 66.7667 310.694 67.525 307.964 67.525C306.401 67.525 304.989 67.2917 303.729 66.825C302.469 66.3583 301.454 65.74 300.684 64.97C299.914 64.1767 299.308 63.3483 298.864 62.485C298.444 61.5983 298.188 60.6883 298.094 59.755L302.574 58.565C302.691 59.895 303.204 61.0033 304.114 61.89C305.048 62.7767 306.343 63.22 307.999 63.22C309.259 63.22 310.239 62.94 310.939 62.38C311.663 61.82 312.024 61.085 312.024 60.175C312.024 59.4517 311.756 58.8333 311.219 58.32C310.706 57.7833 309.971 57.4217 309.014 57.235L305.549 56.535C303.543 56.115 301.956 55.2867 300.789 54.05C299.623 52.8133 299.039 51.2733 299.039 49.43C299.039 47.2367 299.879 45.3933 301.559 43.9C303.263 42.4067 305.304 41.66 307.684 41.66C309.108 41.66 310.379 41.8583 311.499 42.255C312.619 42.6517 313.518 43.1883 314.194 43.865C314.871 44.5183 315.396 45.195 315.769 45.895C316.143 46.595 316.411 47.33 316.574 48.1ZM325.836 61.995C326.699 62.8583 327.737 63.29 328.951 63.29C330.164 63.29 331.191 62.8583 332.031 61.995C332.894 61.1317 333.326 59.93 333.326 58.39C333.326 56.85 332.894 55.6483 332.031 54.785C331.191 53.9217 330.164 53.49 328.951 53.49C327.737 53.49 326.699 53.9217 325.836 54.785C324.996 55.6483 324.576 56.85 324.576 58.39C324.576 59.93 324.996 61.1317 325.836 61.995ZM322.476 51.845C324.202 50.1183 326.361 49.255 328.951 49.255C331.541 49.255 333.687 50.1183 335.391 51.845C337.117 53.5717 337.981 55.7533 337.981 58.39C337.981 61.0267 337.117 63.2083 335.391 64.935C333.687 66.6617 331.541 67.525 328.951 67.525C326.361 67.525 324.202 66.6617 322.476 64.935C320.772 63.2083 319.921 61.0267 319.921 58.39C319.921 55.7533 320.772 53.5717 322.476 51.845ZM352.855 49.71V54.4C352.388 54.3067 351.922 54.26 351.455 54.26C350.125 54.26 349.052 54.645 348.235 55.415C347.418 56.1617 347.01 57.3983 347.01 59.125V67H342.355V49.78H346.87V52.335C347.71 50.5383 349.343 49.64 351.77 49.64C352.027 49.64 352.388 49.6633 352.855 49.71ZM367.33 49.71V54.4C366.863 54.3067 366.396 54.26 365.93 54.26C364.6 54.26 363.526 54.645 362.71 55.415C361.893 56.1617 361.485 57.3983 361.485 59.125V67H356.83V49.78H361.345V52.335C362.185 50.5383 363.818 49.64 366.245 49.64C366.501 49.64 366.863 49.6633 367.33 49.71ZM378.006 73.79H373.071L377.131 64.83L369.816 49.78H375.031L379.616 59.86L383.851 49.78H388.821L378.006 73.79ZM389.378 66.3C388.841 65.74 388.573 65.04 388.573 64.2C388.573 63.36 388.876 62.66 389.483 62.1C390.09 61.54 390.848 61.26 391.758 61.26C392.808 61.26 393.648 61.645 394.278 62.415C394.908 63.1617 395.223 64.1183 395.223 65.285C395.223 67.6183 394.581 69.4267 393.298 70.71C392.038 71.9933 390.626 72.7283 389.063 72.915V70.675C389.903 70.4883 390.661 70.0333 391.338 69.31C392.015 68.61 392.365 67.805 392.388 66.895C392.201 67.035 391.898 67.105 391.478 67.105C390.615 67.105 389.915 66.8367 389.378 66.3ZM414.389 67H409.874V41.66H414.459V51.67C414.879 51.0167 415.544 50.4683 416.454 50.025C417.387 49.5583 418.46 49.325 419.674 49.325C422.124 49.325 424.06 50.165 425.484 51.845C426.907 53.525 427.619 55.6833 427.619 58.32C427.619 60.9567 426.872 63.1383 425.379 64.865C423.885 66.5683 421.925 67.42 419.499 67.42C417.142 67.42 415.439 66.58 414.389 64.9V67ZM421.739 61.96C422.555 61.0733 422.964 59.8717 422.964 58.355C422.964 56.8383 422.555 55.6483 421.739 54.785C420.945 53.9217 419.93 53.49 418.694 53.49C417.457 53.49 416.43 53.9217 415.614 54.785C414.797 55.6483 414.389 56.8383 414.389 58.355C414.389 59.8717 414.797 61.0733 415.614 61.96C416.454 62.8233 417.48 63.255 418.694 63.255C419.93 63.255 420.945 62.8233 421.739 61.96ZM442.504 49.71V54.4C442.038 54.3067 441.571 54.26 441.104 54.26C439.774 54.26 438.701 54.645 437.884 55.415C437.068 56.1617 436.659 57.3983 436.659 59.125V67H432.004V49.78H436.519V52.335C437.359 50.5383 438.993 49.64 441.419 49.64C441.676 49.64 442.038 49.6633 442.504 49.71ZM457.715 67C457.621 66.5333 457.575 65.915 457.575 65.145C457.131 65.915 456.466 66.4983 455.58 66.895C454.716 67.2683 453.795 67.455 452.815 67.455C450.785 67.455 449.186 66.8133 448.02 65.53C446.853 64.2233 446.27 62.6017 446.27 60.665V49.78H450.925V59.72C450.925 60.7467 451.193 61.5867 451.73 62.24C452.266 62.87 453.048 63.185 454.075 63.185C455.078 63.185 455.871 62.8817 456.455 62.275C457.038 61.645 457.33 60.8167 457.33 59.79V49.78H461.985V63.885C461.985 64.9817 462.043 66.02 462.16 67H457.715ZM472.307 56.885V67H467.652V41.66H472.307V51.215C473.357 49.955 474.909 49.325 476.962 49.325C479.062 49.325 480.649 49.9667 481.722 51.25C482.819 52.51 483.367 54.1433 483.367 56.15V67H478.712V56.955C478.712 55.9283 478.444 55.1 477.907 54.47C477.394 53.84 476.601 53.525 475.527 53.525C474.571 53.525 473.801 53.84 473.217 54.47C472.657 55.1 472.354 55.905 472.307 56.885ZM489.247 66.3C488.71 65.74 488.442 65.04 488.442 64.2C488.442 63.36 488.745 62.66 489.352 62.1C489.959 61.54 490.717 61.26 491.627 61.26C492.677 61.26 493.517 61.645 494.147 62.415C494.777 63.1617 495.092 64.1183 495.092 65.285C495.092 67.6183 494.45 69.4267 493.167 70.71C491.907 71.9933 490.495 72.7283 488.932 72.915V70.675C489.772 70.4883 490.53 70.0333 491.207 69.31C491.884 68.61 492.234 67.805 492.257 66.895C492.07 67.035 491.767 67.105 491.347 67.105C490.484 67.105 489.784 66.8367 489.247 66.3ZM363.503 106.205L367.493 105.33C367.539 106.077 367.831 106.707 368.368 107.22C368.928 107.71 369.686 107.955 370.643 107.955C371.366 107.955 371.926 107.792 372.323 107.465C372.719 107.138 372.918 106.73 372.918 106.24C372.918 105.377 372.299 104.817 371.063 104.56L368.788 104.035C367.178 103.685 365.964 103.055 365.148 102.145C364.354 101.235 363.958 100.15 363.958 98.89C363.958 97.3267 364.564 95.9967 365.778 94.9C367.014 93.8033 368.554 93.255 370.398 93.255C371.564 93.255 372.591 93.43 373.478 93.78C374.364 94.1067 375.053 94.5383 375.543 95.075C376.033 95.5883 376.406 96.1133 376.663 96.65C376.919 97.1867 377.083 97.7117 377.153 98.225L373.268 99.1C373.174 98.4933 372.894 97.9567 372.428 97.49C371.984 97.0233 371.319 96.79 370.433 96.79C369.826 96.79 369.301 96.9533 368.858 97.28C368.438 97.6067 368.228 98.015 368.228 98.505C368.228 99.345 368.753 99.8583 369.803 100.045L372.253 100.57C373.909 100.92 375.169 101.562 376.033 102.495C376.919 103.428 377.363 104.548 377.363 105.855C377.363 107.395 376.779 108.725 375.613 109.845C374.446 110.965 372.801 111.525 370.678 111.525C369.464 111.525 368.379 111.35 367.423 111C366.466 110.627 365.719 110.16 365.183 109.6C364.669 109.017 364.273 108.445 363.993 107.885C363.736 107.302 363.573 106.742 363.503 106.205ZM387.545 88.635V93.78H391.01V97.91H387.545V105.12C387.545 105.843 387.709 106.357 388.035 106.66C388.362 106.963 388.875 107.115 389.575 107.115C390.205 107.115 390.684 107.068 391.01 106.975V110.825C390.334 111.105 389.459 111.245 388.385 111.245C386.705 111.245 385.375 110.778 384.395 109.845C383.415 108.888 382.925 107.582 382.925 105.925V97.91H379.81V93.78H380.685C381.549 93.78 382.202 93.535 382.645 93.045C383.112 92.5317 383.345 91.8667 383.345 91.05V88.635H387.545ZM400.319 111H395.664V93.78H400.319V111ZM395.104 88.145C395.104 87.3517 395.384 86.675 395.944 86.115C396.504 85.5317 397.181 85.24 397.974 85.24C398.768 85.24 399.444 85.52 400.004 86.08C400.564 86.64 400.844 87.3283 400.844 88.145C400.844 88.915 400.564 89.58 400.004 90.14C399.444 90.7 398.768 90.98 397.974 90.98C397.181 90.98 396.504 90.7 395.944 90.14C395.384 89.58 395.104 88.915 395.104 88.145ZM410.658 111H406.003V85.66H410.658V111ZM420.997 111H416.342V85.66H420.997V111ZM452.443 85.66V107.885C452.443 109.028 452.49 110.067 452.583 111H448.138C448.021 110.417 447.963 109.752 447.963 109.005C447.566 109.728 446.936 110.312 446.073 110.755C445.233 111.198 444.253 111.42 443.133 111.42C440.683 111.42 438.665 110.568 437.078 108.865C435.515 107.138 434.733 104.968 434.733 102.355C434.733 99.8117 435.503 97.6767 437.043 95.95C438.606 94.2233 440.59 93.36 442.993 93.36C445.466 93.36 447.088 94.0717 447.858 95.495V85.66H452.443ZM439.423 102.355C439.423 103.872 439.82 105.073 440.613 105.96C441.406 106.823 442.433 107.255 443.693 107.255C444.93 107.255 445.945 106.812 446.738 105.925C447.531 105.038 447.928 103.837 447.928 102.32C447.928 100.827 447.531 99.66 446.738 98.82C445.945 97.9567 444.93 97.525 443.693 97.525C442.456 97.525 441.43 97.9567 440.613 98.82C439.82 99.6833 439.423 100.862 439.423 102.355ZM461.588 100.43H469.288C469.241 99.4733 468.891 98.6683 468.238 98.015C467.608 97.3617 466.674 97.035 465.438 97.035C464.318 97.035 463.408 97.385 462.708 98.085C462.008 98.785 461.634 99.5667 461.588 100.43ZM469.743 104.91L473.628 106.065C473.161 107.652 472.239 108.958 470.863 109.985C469.509 111.012 467.818 111.525 465.788 111.525C463.314 111.525 461.214 110.697 459.488 109.04C457.761 107.36 456.898 105.12 456.898 102.32C456.898 99.66 457.738 97.49 459.418 95.81C461.098 94.1067 463.081 93.255 465.368 93.255C468.028 93.255 470.104 94.0483 471.598 95.635C473.114 97.2217 473.873 99.4033 473.873 102.18C473.873 102.367 473.861 102.577 473.838 102.81C473.838 103.043 473.838 103.23 473.838 103.37L473.803 103.615H461.483C461.529 104.735 461.973 105.668 462.813 106.415C463.653 107.162 464.656 107.535 465.823 107.535C467.806 107.535 469.113 106.66 469.743 104.91ZM476.769 106.205L480.759 105.33C480.805 106.077 481.097 106.707 481.634 107.22C482.194 107.71 482.952 107.955 483.909 107.955C484.632 107.955 485.192 107.792 485.589 107.465C485.985 107.138 486.184 106.73 486.184 106.24C486.184 105.377 485.565 104.817 484.329 104.56L482.054 104.035C480.444 103.685 479.23 103.055 478.414 102.145C477.62 101.235 477.224 100.15 477.224 98.89C477.224 97.3267 477.83 95.9967 479.044 94.9C480.28 93.8033 481.82 93.255 483.664 93.255C484.83 93.255 485.857 93.43 486.744 93.78C487.63 94.1067 488.319 94.5383 488.809 95.075C489.299 95.5883 489.672 96.1133 489.929 96.65C490.185 97.1867 490.349 97.7117 490.419 98.225L486.534 99.1C486.44 98.4933 486.16 97.9567 485.694 97.49C485.25 97.0233 484.585 96.79 483.699 96.79C483.092 96.79 482.567 96.9533 482.124 97.28C481.704 97.6067 481.494 98.015 481.494 98.505C481.494 99.345 482.019 99.8583 483.069 100.045L485.519 100.57C487.175 100.92 488.435 101.562 489.299 102.495C490.185 103.428 490.629 104.548 490.629 105.855C490.629 107.395 490.045 108.725 488.879 109.845C487.712 110.965 486.067 111.525 483.944 111.525C482.73 111.525 481.645 111.35 480.689 111C479.732 110.627 478.985 110.16 478.449 109.6C477.935 109.017 477.539 108.445 477.259 107.885C477.002 107.302 476.839 106.742 476.769 106.205ZM499.726 111H495.071V93.78H499.726V111ZM494.511 88.145C494.511 87.3517 494.791 86.675 495.351 86.115C495.911 85.5317 496.588 85.24 497.381 85.24C498.175 85.24 498.851 85.52 499.411 86.08C499.971 86.64 500.251 87.3283 500.251 88.145C500.251 88.915 499.971 89.58 499.411 90.14C498.851 90.7 498.175 90.98 497.381 90.98C496.588 90.98 495.911 90.7 495.351 90.14C494.791 89.58 494.511 88.915 494.511 88.145ZM504.185 111.945L508.385 110.825C508.548 111.782 508.992 112.563 509.715 113.17C510.438 113.777 511.337 114.08 512.41 114.08C515.467 114.08 516.995 112.482 516.995 109.285V108.025C516.598 108.655 515.992 109.18 515.175 109.6C514.358 110.02 513.367 110.23 512.2 110.23C509.913 110.23 508 109.437 506.46 107.85C504.943 106.263 504.185 104.268 504.185 101.865C504.185 99.5317 504.943 97.5483 506.46 95.915C507.977 94.2817 509.89 93.465 512.2 93.465C513.46 93.465 514.51 93.6983 515.35 94.165C516.19 94.6083 516.773 95.1567 517.1 95.81V93.78H521.58V109.145C521.58 111.735 520.833 113.882 519.34 115.585C517.847 117.312 515.583 118.175 512.55 118.175C510.287 118.175 508.385 117.568 506.845 116.355C505.328 115.142 504.442 113.672 504.185 111.945ZM513.005 106.24C514.195 106.24 515.163 105.843 515.91 105.05C516.68 104.257 517.065 103.195 517.065 101.865C517.065 100.558 516.668 99.5083 515.875 98.715C515.105 97.9217 514.148 97.525 513.005 97.525C511.815 97.525 510.823 97.9217 510.03 98.715C509.26 99.5083 508.875 100.558 508.875 101.865C508.875 103.195 509.26 104.257 510.03 105.05C510.8 105.843 511.792 106.24 513.005 106.24ZM531.649 101.095V111H526.994V93.78H531.509V95.915C531.999 95.075 532.699 94.4333 533.609 93.99C534.519 93.5467 535.475 93.325 536.479 93.325C538.509 93.325 540.049 93.9667 541.099 95.25C542.172 96.51 542.709 98.1433 542.709 100.15V111H538.054V100.955C538.054 99.9283 537.785 99.1 537.249 98.47C536.735 97.84 535.942 97.525 534.869 97.525C533.889 97.525 533.107 97.8633 532.524 98.54C531.94 99.2167 531.649 100.068 531.649 101.095ZM552.788 111H548.133V93.78H552.788V111ZM547.573 88.145C547.573 87.3517 547.853 86.675 548.413 86.115C548.973 85.5317 549.65 85.24 550.443 85.24C551.237 85.24 551.913 85.52 552.473 86.08C553.033 86.64 553.313 87.3283 553.313 88.145C553.313 88.915 553.033 89.58 552.473 90.14C551.913 90.7 551.237 90.98 550.443 90.98C549.65 90.98 548.973 90.7 548.413 90.14C547.853 89.58 547.573 88.915 547.573 88.145ZM563.127 101.095V111H558.472V93.78H562.987V95.915C563.477 95.075 564.177 94.4333 565.087 93.99C565.997 93.5467 566.954 93.325 567.957 93.325C569.987 93.325 571.527 93.9667 572.577 95.25C573.65 96.51 574.187 98.1433 574.187 100.15V111H569.532V100.955C569.532 99.9283 569.264 99.1 568.727 98.47C568.214 97.84 567.42 97.525 566.347 97.525C565.367 97.525 564.585 97.8633 564.002 98.54C563.419 99.2167 563.127 100.068 563.127 101.095ZM578.386 111.945L582.586 110.825C582.75 111.782 583.193 112.563 583.916 113.17C584.64 113.777 585.538 114.08 586.611 114.08C589.668 114.08 591.196 112.482 591.196 109.285V108.025C590.8 108.655 590.193 109.18 589.376 109.6C588.56 110.02 587.568 110.23 586.401 110.23C584.115 110.23 582.201 109.437 580.661 107.85C579.145 106.263 578.386 104.268 578.386 101.865C578.386 99.5317 579.145 97.5483 580.661 95.915C582.178 94.2817 584.091 93.465 586.401 93.465C587.661 93.465 588.711 93.6983 589.551 94.165C590.391 94.6083 590.975 95.1567 591.301 95.81V93.78H595.781V109.145C595.781 111.735 595.035 113.882 593.541 115.585C592.048 117.312 589.785 118.175 586.751 118.175C584.488 118.175 582.586 117.568 581.046 116.355C579.53 115.142 578.643 113.672 578.386 111.945ZM587.206 106.24C588.396 106.24 589.365 105.843 590.111 105.05C590.881 104.257 591.266 103.195 591.266 101.865C591.266 100.558 590.87 99.5083 590.076 98.715C589.306 97.9217 588.35 97.525 587.206 97.525C586.016 97.525 585.025 97.9217 584.231 98.715C583.461 99.5083 583.076 100.558 583.076 101.865C583.076 103.195 583.461 104.257 584.231 105.05C585.001 105.843 585.993 106.24 587.206 106.24ZM601.69 110.335C601.06 109.705 600.745 108.947 600.745 108.06C600.745 107.173 601.06 106.427 601.69 105.82C602.32 105.19 603.067 104.875 603.93 104.875C604.817 104.875 605.575 105.19 606.205 105.82C606.835 106.427 607.15 107.173 607.15 108.06C607.15 108.947 606.835 109.705 606.205 110.335C605.575 110.942 604.817 111.245 603.93 111.245C603.067 111.245 602.32 110.942 601.69 110.335ZM613.259 110.335C612.629 109.705 612.314 108.947 612.314 108.06C612.314 107.173 612.629 106.427 613.259 105.82C613.889 105.19 614.636 104.875 615.499 104.875C616.386 104.875 617.144 105.19 617.774 105.82C618.404 106.427 618.719 107.173 618.719 108.06C618.719 108.947 618.404 109.705 617.774 110.335C617.144 110.942 616.386 111.245 615.499 111.245C614.636 111.245 613.889 110.942 613.259 110.335ZM624.828 110.335C624.198 109.705 623.883 108.947 623.883 108.06C623.883 107.173 624.198 106.427 624.828 105.82C625.458 105.19 626.205 104.875 627.068 104.875C627.955 104.875 628.713 105.19 629.343 105.82C629.973 106.427 630.288 107.173 630.288 108.06C630.288 108.947 629.973 109.705 629.343 110.335C628.713 110.942 627.955 111.245 627.068 111.245C626.205 111.245 625.458 110.942 624.828 110.335Z" fill="#181818" fill-opacity="0.9"/>
<path d="M514.013 67.21C512.519 67.21 511.341 66.8133 510.478 66.02C509.614 65.2267 509.183 64.1417 509.183 62.765C509.183 62.2983 509.229 61.8433 509.323 61.4L510.933 53.91H507.888L508.763 49.78H509.463C511.283 49.78 512.403 48.8467 512.823 46.98L513.348 44.635H517.548L516.428 49.78H519.788L518.913 53.91H515.553L514.048 61.085C513.978 61.3417 513.943 61.575 513.943 61.785C513.943 62.765 514.561 63.255 515.798 63.255C516.241 63.255 516.649 63.2083 517.023 63.115L516.218 66.825C515.611 67.0817 514.876 67.21 514.013 67.21ZM536.483 67H531.828L533.963 57.025C534.033 56.675 534.068 56.3367 534.068 56.01C534.068 55.2167 533.835 54.5983 533.368 54.155C532.925 53.6883 532.283 53.455 531.443 53.455C530.487 53.455 529.693 53.7933 529.063 54.47C528.457 55.1467 528.037 55.9983 527.803 57.025L525.633 67H521.013L526.368 41.66H531.023L529.028 51.18C530.102 49.9433 531.607 49.325 533.543 49.325C535.223 49.325 536.542 49.8267 537.498 50.83C538.455 51.8333 538.933 53.14 538.933 54.75C538.933 55.3333 538.863 55.94 538.723 56.57L536.483 67ZM546.216 44.32C546.216 43.4567 546.52 42.7217 547.126 42.115C547.756 41.5083 548.503 41.205 549.366 41.205C550.136 41.205 550.755 41.45 551.221 41.94C551.711 42.4067 551.956 43.0017 551.956 43.725C551.956 44.6117 551.63 45.3583 550.976 45.965C550.346 46.5483 549.611 46.84 548.771 46.84C548.048 46.84 547.441 46.6067 546.951 46.14C546.461 45.65 546.216 45.0433 546.216 44.32ZM546.566 67H541.946L545.621 49.78H550.241L546.566 67ZM551.933 61.715L555.888 61.015C555.865 61.1083 555.853 61.2133 555.853 61.33C555.853 62.0767 556.098 62.7183 556.588 63.255C557.102 63.7683 557.767 64.025 558.583 64.025C559.283 64.025 559.808 63.8617 560.158 63.535C560.532 63.185 560.718 62.7767 560.718 62.31C560.718 61.5867 560.287 61.0267 559.423 60.63L557.498 59.79C555.048 58.74 553.823 57.13 553.823 54.96C553.823 53.3967 554.43 52.055 555.643 50.935C556.88 49.815 558.467 49.255 560.403 49.255C561.617 49.255 562.655 49.43 563.518 49.78C564.405 50.13 565.07 50.5967 565.513 51.18C565.957 51.7633 566.272 52.335 566.458 52.895C566.668 53.4317 566.785 53.98 566.808 54.54L562.783 55.17C562.783 54.5167 562.585 53.945 562.188 53.455C561.792 52.965 561.15 52.72 560.263 52.72C559.657 52.72 559.155 52.8833 558.758 53.21C558.385 53.5367 558.198 53.945 558.198 54.435C558.198 55.1117 558.56 55.6017 559.283 55.905L561.488 56.85C564.032 57.9467 565.303 59.6267 565.303 61.89C565.303 63.36 564.72 64.6667 563.553 65.81C562.387 66.9533 560.753 67.525 558.653 67.525C557.3 67.525 556.145 67.3267 555.188 66.93C554.255 66.51 553.567 65.9733 553.123 65.32C552.68 64.6433 552.377 64.025 552.213 63.465C552.027 62.8817 551.933 62.2983 551.933 61.715Z" fill="#3173A7"/>
<path d="M571.475 67.21C570.612 67.21 569.912 66.9417 569.375 66.405C568.838 65.845 568.57 65.1683 568.57 64.375C568.57 63.4183 568.92 62.6017 569.62 61.925C570.32 61.225 571.16 60.875 572.14 60.875C573.003 60.875 573.703 61.155 574.24 61.715C574.777 62.2517 575.045 62.9167 575.045 63.71C575.045 64.6667 574.695 65.495 573.995 66.195C573.295 66.8717 572.455 67.21 571.475 67.21ZM583.524 67H579.009L584.329 41.66H588.914L586.919 51.18C587.992 49.99 589.532 49.395 591.539 49.395C593.685 49.395 595.342 50.0717 596.509 51.425C597.675 52.7783 598.259 54.505 598.259 56.605C598.259 59.755 597.395 62.345 595.669 64.375C593.965 66.405 591.819 67.42 589.229 67.42C587.969 67.42 586.872 67.14 585.939 66.58C585.005 66.02 584.375 65.355 584.049 64.585L583.524 67ZM589.929 53.49C588.622 53.49 587.514 54.05 586.604 55.17C585.717 56.29 585.274 57.6783 585.274 59.335C585.274 60.5483 585.6 61.5167 586.254 62.24C586.907 62.94 587.747 63.29 588.774 63.29C589.987 63.29 591.084 62.765 592.064 61.715C593.067 60.6417 593.569 59.1833 593.569 57.34C593.569 56.1033 593.23 55.1583 592.554 54.505C591.9 53.8283 591.025 53.49 589.929 53.49ZM610.218 53.525C608.818 53.525 607.71 54.1317 606.893 55.345C606.077 56.5583 605.668 57.935 605.668 59.475C605.668 60.665 605.972 61.5983 606.578 62.275C607.185 62.9517 608.002 63.29 609.028 63.29C610.265 63.29 611.315 62.7417 612.178 61.645C613.065 60.525 613.508 59.0433 613.508 57.2C613.508 56.0567 613.217 55.1583 612.633 54.505C612.05 53.8517 611.245 53.525 610.218 53.525ZM615.258 49.78H619.773L616.938 63.22C616.728 64.2233 616.623 65.2617 616.623 66.335C616.623 66.5683 616.635 66.79 616.658 67H612.353C612.33 66.8133 612.318 66.545 612.318 66.195C612.318 65.8917 612.342 65.46 612.388 64.9C611.292 66.51 609.752 67.315 607.768 67.315C605.715 67.315 604.082 66.5917 602.868 65.145C601.655 63.675 601.048 61.8433 601.048 59.65C601.048 56.7333 601.888 54.295 603.568 52.335C605.248 50.3517 607.337 49.36 609.833 49.36C611.257 49.36 612.365 49.605 613.158 50.095C613.975 50.585 614.535 51.1333 614.838 51.74L615.258 49.78ZM637.241 67H632.586L634.721 57.025C634.791 56.675 634.826 56.3367 634.826 56.01C634.826 55.2167 634.593 54.5983 634.126 54.155C633.683 53.6883 633.041 53.455 632.201 53.455C631.244 53.455 630.451 53.7933 629.821 54.47C629.214 55.1467 628.794 55.9983 628.561 57.025L626.391 67H621.771L624.781 52.72C625.014 51.6467 625.131 50.6667 625.131 49.78H629.646C629.646 50.48 629.611 51.0633 629.541 51.53C630.591 50.06 632.201 49.325 634.371 49.325C636.051 49.325 637.358 49.8267 638.291 50.83C639.224 51.8333 639.691 53.14 639.691 54.75C639.691 55.3333 639.621 55.94 639.481 56.57L637.241 67ZM658.244 67H653.589L655.724 57.025C655.794 56.675 655.829 56.3367 655.829 56.01C655.829 55.2167 655.595 54.5983 655.129 54.155C654.685 53.6883 654.044 53.455 653.204 53.455C652.247 53.455 651.454 53.7933 650.824 54.47C650.217 55.1467 649.797 55.9983 649.564 57.025L647.394 67H642.774L645.784 52.72C646.017 51.6467 646.134 50.6667 646.134 49.78H650.649C650.649 50.48 650.614 51.0633 650.544 51.53C651.594 50.06 653.204 49.325 655.374 49.325C657.054 49.325 658.36 49.8267 659.294 50.83C660.227 51.8333 660.694 53.14 660.694 54.75C660.694 55.3333 660.624 55.94 660.484 56.57L658.244 67ZM668.784 56.43H676.344C676.367 56.2667 676.379 56.1267 676.379 56.01C676.379 55.24 676.111 54.5517 675.574 53.945C675.037 53.3383 674.221 53.035 673.124 53.035C672.004 53.035 671.071 53.35 670.324 53.98C669.601 54.61 669.087 55.4267 668.784 56.43ZM680.264 59.615L668.294 59.65C668.294 60.8167 668.632 61.7733 669.309 62.52C669.986 63.2667 670.931 63.64 672.144 63.64C673.917 63.64 675.201 62.8933 675.994 61.4L679.564 63.185C678.934 64.4217 677.966 65.46 676.659 66.3C675.352 67.1167 673.754 67.525 671.864 67.525C669.647 67.525 667.769 66.8017 666.229 65.355C664.712 63.885 663.954 61.96 663.954 59.58C663.954 56.5233 664.876 54.0383 666.719 52.125C668.586 50.2117 670.744 49.255 673.194 49.255C675.551 49.255 677.394 49.9317 678.724 51.285C680.077 52.615 680.754 54.3533 680.754 56.5C680.754 57.5267 680.591 58.565 680.264 59.615ZM696.226 54.505C695.573 54.3417 695.013 54.26 694.546 54.26C691.91 54.26 690.253 55.8583 689.576 59.055L687.861 67H683.241L686.251 52.72C686.508 51.53 686.636 50.55 686.636 49.78H691.151C691.151 50.6433 691.081 51.355 690.941 51.915C691.991 50.4217 693.59 49.675 695.736 49.675C696.203 49.675 696.693 49.7217 697.206 49.815L696.226 54.505Z" fill="#00A7FF"/>
<path d="M391.125 167C390.502 167 390 167.502 390 168.125V189.875C390 190.498 390.502 191 391.125 191H412.875C413.498 191 414 190.498 414 189.875V168.125C414 167.502 413.498 167 412.875 167H391.125ZM408.488 176.75C409.1 176.75 409.642 176.787 410.115 176.861C410.561 176.928 410.999 177.042 411.421 177.201V179.659C411.218 179.519 411.003 179.398 410.778 179.298C410.546 179.194 410.306 179.107 410.061 179.038C409.597 178.909 409.117 178.841 408.635 178.838C408.335 178.838 408.062 178.866 407.816 178.924C407.597 178.971 407.386 179.053 407.193 179.166C407.023 179.27 406.893 179.395 406.8 179.54C406.706 179.686 406.658 179.856 406.66 180.03C406.66 180.226 406.713 180.403 406.816 180.559C406.92 180.715 407.068 180.863 407.259 181.003C407.45 181.143 407.682 181.279 407.955 181.413C408.228 181.548 408.537 181.687 408.881 181.829C409.351 182.026 409.773 182.236 410.147 182.457C410.521 182.679 410.842 182.93 411.11 183.21C411.378 183.489 411.582 183.808 411.724 184.167C411.866 184.526 411.938 184.943 411.938 185.42C411.938 186.077 411.813 186.63 411.565 187.076C411.323 187.516 410.975 187.889 410.553 188.161C410.098 188.449 409.594 188.651 409.066 188.757C408.5 188.877 407.903 188.937 407.276 188.937C406.659 188.94 406.043 188.885 405.436 188.773C404.911 188.682 404.402 188.516 403.924 188.28V185.65C404.828 186.419 405.974 186.844 407.161 186.85C407.494 186.85 407.785 186.82 408.033 186.76C408.282 186.7 408.489 186.616 408.656 186.51C408.822 186.402 408.946 186.276 409.029 186.13C409.121 185.96 409.162 185.768 409.149 185.575C409.136 185.382 409.069 185.197 408.955 185.041C408.806 184.844 408.625 184.675 408.418 184.541C408.162 184.371 407.892 184.223 407.611 184.097C407.278 183.945 406.943 183.8 406.604 183.661C405.686 183.278 405.002 182.809 404.551 182.256C404.101 181.703 403.875 181.034 403.875 180.251C403.875 179.637 403.998 179.11 404.244 178.669C404.49 178.228 404.824 177.865 405.248 177.58C405.696 177.284 406.194 177.071 406.718 176.951C407.298 176.814 407.892 176.747 408.488 176.75V176.75ZM393.375 176.938H402.938V179.104H399.506V188.75H396.789V179.104H393.375V176.938Z" fill="black" fill-opacity="0.8"/>
<path d="M471.73 179.002C471.73 179.595 471.495 180.164 471.075 180.583C470.656 181.003 470.088 181.238 469.495 181.238C468.902 181.238 468.333 181.003 467.914 180.584C467.495 180.164 467.259 179.596 467.259 179.002C467.259 178.41 467.494 177.841 467.914 177.422C468.333 177.002 468.901 176.767 469.494 176.766C470.087 176.766 470.656 177.002 471.075 177.421C471.494 177.841 471.73 178.409 471.73 179.002V179.002ZM474.378 168.312C473.032 168.312 471.271 169.273 469.49 170.935C467.71 169.282 465.948 168.332 464.603 168.332C464.193 168.332 463.82 168.425 463.497 168.61C462.122 169.403 461.814 171.875 462.524 174.976C459.48 175.916 457.5 177.418 457.5 179.002C457.5 180.592 459.49 182.1 462.543 183.033C461.839 186.146 462.153 188.621 463.531 189.413C463.851 189.6 464.221 189.688 464.633 189.688C465.978 189.688 467.74 188.728 469.521 187.064C471.301 188.718 473.063 189.667 474.408 189.667C474.818 189.667 475.191 189.577 475.514 189.392C476.888 188.6 477.197 186.128 476.487 183.026C479.52 182.094 481.5 180.588 481.5 179.002C481.5 177.412 479.51 175.905 476.457 174.97C477.161 171.861 476.847 169.383 475.469 168.59C475.151 168.406 474.781 168.314 474.377 168.312H474.378ZM474.373 169.403V169.409C474.598 169.409 474.779 169.452 474.931 169.535C475.597 169.917 475.886 171.371 475.661 173.24C475.607 173.7 475.519 174.185 475.411 174.68C474.451 174.444 473.405 174.262 472.304 174.145C471.644 173.24 470.959 172.418 470.269 171.698C471.861 170.218 473.356 169.406 474.374 169.403L474.373 169.403ZM464.603 169.423C465.615 169.423 467.117 170.23 468.713 171.702C468.027 172.422 467.343 173.239 466.693 174.144C465.586 174.261 464.539 174.442 463.58 174.682C463.468 174.192 463.385 173.718 463.326 173.262C463.096 171.394 463.38 169.942 464.04 169.555C464.23 169.465 464.44 169.428 464.603 169.423V169.423ZM469.485 172.472C469.94 172.94 470.395 173.464 470.845 174.036C470.405 174.016 469.955 174.003 469.5 174.003C469.04 174.003 468.585 174.012 468.14 174.036C468.58 173.464 469.035 172.94 469.485 172.471V172.472ZM469.5 175.099C470.24 175.099 470.977 175.132 471.702 175.191C472.108 175.773 472.504 176.395 472.885 177.052C473.257 177.692 473.595 178.341 473.903 178.997C473.595 179.652 473.257 180.308 472.89 180.948C472.51 181.608 472.117 182.236 471.71 182.818C470.982 182.881 470.244 182.915 469.5 182.915C468.76 182.915 468.023 182.881 467.298 182.823C466.892 182.241 466.496 181.618 466.115 180.962C465.743 180.322 465.405 179.672 465.097 179.016C465.4 178.359 465.743 177.703 466.11 177.062C466.49 176.402 466.883 175.776 467.29 175.194C468.018 175.13 468.756 175.096 469.5 175.096V175.099ZM465.865 175.352C465.625 175.729 465.385 176.115 465.161 176.512C464.936 176.902 464.726 177.294 464.526 177.686C464.261 177.03 464.036 176.377 463.85 175.74C464.49 175.59 465.165 175.456 465.865 175.353V175.352ZM473.125 175.352C473.82 175.455 474.49 175.583 475.131 175.74C474.951 176.372 474.726 177.021 474.471 177.672C474.271 177.282 474.061 176.889 473.831 176.498C473.606 176.106 473.366 175.724 473.126 175.352H473.125ZM476.188 176.028C476.672 176.178 477.132 176.345 477.563 176.526C479.295 177.266 480.415 178.234 480.415 179.002C480.41 179.77 479.29 180.741 477.558 181.476C477.138 181.656 476.678 181.818 476.203 181.969C475.923 181.011 475.557 180.014 475.103 178.99C475.553 177.973 475.913 176.98 476.188 176.026V176.028ZM462.793 176.031C463.071 176.991 463.438 177.988 463.893 179.011C463.443 180.028 463.081 181.022 462.807 181.976C462.323 181.826 461.863 181.658 461.437 181.476C459.705 180.739 458.585 179.77 458.585 179.002C458.585 178.234 459.705 177.26 461.437 176.526C461.857 176.346 462.317 176.183 462.793 176.031V176.031ZM474.471 180.311C474.736 180.968 474.961 181.623 475.147 182.259C474.507 182.416 473.831 182.549 473.131 182.649C473.371 182.274 473.611 181.887 473.836 181.491C474.061 181.101 474.271 180.703 474.472 180.311H474.471ZM464.526 180.332C464.726 180.724 464.936 181.115 465.166 181.507C465.396 181.897 465.631 182.278 465.871 182.649C465.176 182.547 464.506 182.42 463.865 182.264C464.045 181.634 464.271 180.981 464.525 180.33L464.526 180.332ZM475.42 183.318C475.532 183.811 475.62 184.287 475.674 184.742C475.904 186.61 475.62 188.062 474.96 188.45C474.813 188.54 474.622 188.578 474.397 188.578C473.385 188.578 471.883 187.771 470.287 186.298C470.973 185.578 471.657 184.761 472.307 183.857C473.414 183.739 474.461 183.558 475.42 183.318V183.318ZM463.59 183.328C464.55 183.562 465.596 183.743 466.697 183.86C467.357 184.765 468.042 185.588 468.732 186.307C467.137 187.79 465.64 188.602 464.622 188.602C464.402 188.597 464.216 188.552 464.069 188.47C463.403 188.09 463.114 186.636 463.339 184.767C463.393 184.307 463.481 183.822 463.589 183.328H463.59ZM468.15 183.968C468.59 183.988 469.04 184.002 469.495 184.002C469.955 184.002 470.41 183.992 470.855 183.968C470.415 184.54 469.96 185.064 469.51 185.534C469.055 185.064 468.6 184.54 468.15 183.968Z" fill="black" fill-opacity="0.8"/>
<path d="M529.325 191.75H527V174.975H529.275V176.85C529.625 176.217 530.15 175.7 530.85 175.3C531.55 174.9 532.367 174.7 533.3 174.7C535.033 174.7 536.383 175.292 537.35 176.475C538.333 177.658 538.825 179.158 538.825 180.975C538.825 182.808 538.317 184.325 537.3 185.525C536.3 186.725 534.942 187.325 533.225 187.325C532.342 187.325 531.558 187.142 530.875 186.775C530.192 186.408 529.675 185.942 529.325 185.375V191.75ZM536.425 180.975C536.425 179.758 536.1 178.758 535.45 177.975C534.817 177.175 533.958 176.775 532.875 176.775C531.808 176.775 530.942 177.175 530.275 177.975C529.625 178.758 529.3 179.758 529.3 180.975C529.3 182.225 529.625 183.25 530.275 184.05C530.942 184.833 531.808 185.225 532.875 185.225C533.942 185.225 534.8 184.833 535.45 184.05C536.1 183.25 536.425 182.225 536.425 180.975ZM544.169 179.925V187H541.819V168.9H544.169V176.375C544.969 175.208 546.186 174.625 547.819 174.625C549.203 174.625 550.261 175.067 550.994 175.95C551.744 176.833 552.119 177.975 552.119 179.375V187H549.769V179.775C549.769 177.758 548.836 176.75 546.969 176.75C546.103 176.75 545.428 177.05 544.944 177.65C544.461 178.233 544.203 178.992 544.169 179.925ZM555.107 183.775C555.107 182.742 555.441 181.917 556.107 181.3C556.774 180.667 557.657 180.275 558.757 180.125L562.007 179.65C562.624 179.567 562.932 179.267 562.932 178.75C562.932 178.117 562.716 177.6 562.282 177.2C561.849 176.8 561.199 176.6 560.332 176.6C559.532 176.6 558.899 176.825 558.432 177.275C557.966 177.708 557.691 178.292 557.607 179.025L555.357 178.5C555.474 177.35 555.999 176.417 556.932 175.7C557.866 174.967 558.982 174.6 560.282 174.6C561.982 174.6 563.241 175.017 564.057 175.85C564.874 176.667 565.282 177.717 565.282 179V185.025C565.282 185.742 565.332 186.4 565.432 187H563.132C563.049 186.5 563.007 185.958 563.007 185.375C562.674 185.908 562.182 186.375 561.532 186.775C560.899 187.175 560.099 187.375 559.132 187.375C557.949 187.375 556.982 187.025 556.232 186.325C555.482 185.608 555.107 184.758 555.107 183.775ZM559.457 185.4C560.507 185.4 561.349 185.117 561.982 184.55C562.616 183.983 562.932 183.083 562.932 181.85V181.3L559.257 181.85C558.724 181.933 558.299 182.125 557.982 182.425C557.666 182.725 557.507 183.133 557.507 183.65C557.507 184.117 557.682 184.525 558.032 184.875C558.399 185.225 558.874 185.4 559.457 185.4ZM567.818 183.875L569.943 183.125C570.027 183.775 570.31 184.317 570.793 184.75C571.277 185.167 571.927 185.375 572.743 185.375C573.377 185.375 573.877 185.225 574.243 184.925C574.61 184.608 574.793 184.225 574.793 183.775C574.793 182.975 574.277 182.458 573.243 182.225L571.193 181.775C570.26 181.575 569.527 181.175 568.993 180.575C568.46 179.975 568.193 179.25 568.193 178.4C568.193 177.367 568.61 176.475 569.443 175.725C570.293 174.975 571.302 174.6 572.468 174.6C573.235 174.6 573.918 174.717 574.518 174.95C575.118 175.167 575.585 175.458 575.918 175.825C576.252 176.192 576.502 176.533 576.668 176.85C576.835 177.167 576.96 177.492 577.043 177.825L574.968 178.6C574.935 178.4 574.877 178.208 574.793 178.025C574.71 177.825 574.577 177.608 574.393 177.375C574.227 177.142 573.977 176.958 573.643 176.825C573.31 176.675 572.918 176.6 572.468 176.6C571.885 176.6 571.402 176.758 571.018 177.075C570.652 177.392 570.468 177.767 570.468 178.2C570.468 178.967 570.927 179.45 571.843 179.65L573.793 180.075C574.86 180.308 575.677 180.742 576.243 181.375C576.827 181.992 577.118 182.75 577.118 183.65C577.118 184.6 576.727 185.458 575.943 186.225C575.177 186.992 574.102 187.375 572.718 187.375C571.235 187.375 570.077 187.008 569.243 186.275C568.41 185.525 567.935 184.725 567.818 183.875ZM581.65 179.75H588.225C588.192 178.85 587.892 178.117 587.325 177.55C586.758 176.967 585.958 176.675 584.925 176.675C583.992 176.675 583.225 176.983 582.625 177.6C582.025 178.2 581.7 178.917 581.65 179.75ZM588.575 182.875L590.6 183.575C590.25 184.692 589.6 185.608 588.65 186.325C587.7 187.025 586.55 187.375 585.2 187.375C583.517 187.375 582.083 186.8 580.9 185.65C579.733 184.483 579.15 182.917 579.15 180.95C579.15 179.117 579.717 177.6 580.85 176.4C581.983 175.2 583.333 174.6 584.9 174.6C586.717 174.6 588.133 175.175 589.15 176.325C590.167 177.458 590.675 178.983 590.675 180.9C590.675 181.2 590.658 181.45 590.625 181.65H581.575C581.592 182.717 581.942 183.592 582.625 184.275C583.325 184.958 584.183 185.3 585.2 185.3C586.917 185.3 588.042 184.492 588.575 182.875ZM600.35 174.85V177.35C600 177.3 599.658 177.275 599.325 177.275C597.125 177.275 596.025 178.508 596.025 180.975V187H593.675V174.975H595.975V177.075C596.708 175.542 597.908 174.775 599.575 174.775C599.841 174.775 600.1 174.8 600.35 174.85ZM600.858 186.625C600.525 186.292 600.358 185.883 600.358 185.4C600.358 184.917 600.525 184.508 600.858 184.175C601.192 183.825 601.6 183.65 602.083 183.65C602.567 183.65 602.975 183.825 603.308 184.175C603.658 184.508 603.833 184.917 603.833 185.4C603.833 185.883 603.658 186.292 603.308 186.625C602.975 186.958 602.567 187.125 602.083 187.125C601.6 187.125 601.192 186.958 600.858 186.625Z" fill="black" fill-opacity="0.8"/>
</svg>
