<svg width="995" height="222" viewBox="0 0 995 222" fill="none" xmlns="http://www.w3.org/2000/svg">
<rect width="995" height="222" fill="#E9DFAF"/>
<path d="M285.7 66.49H289.515C290.705 66.49 291.65 66.175 292.35 65.545C293.05 64.8917 293.4 64.0283 293.4 62.955C293.4 61.8583 293.05 60.995 292.35 60.365C291.673 59.7117 290.728 59.385 289.515 59.385H285.7V66.49ZM290.11 70.655H285.665V80H280.835V55.185H290.11C292.537 55.185 294.497 55.9083 295.99 57.355C297.507 58.8017 298.265 60.6567 298.265 62.92C298.265 65.1833 297.507 67.0383 295.99 68.485C294.497 69.9317 292.537 70.655 290.11 70.655ZM300.745 75.31C300.745 73.84 301.224 72.6617 302.18 71.775C303.137 70.8883 304.374 70.3283 305.89 70.095L310.125 69.465C310.989 69.3483 311.42 68.94 311.42 68.24C311.42 67.5867 311.164 67.05 310.65 66.63C310.16 66.21 309.449 66 308.515 66C307.535 66 306.754 66.2683 306.17 66.805C305.61 67.3417 305.295 68.0067 305.225 68.8L301.095 67.925C301.259 66.4317 301.994 65.1133 303.3 63.97C304.607 62.8267 306.334 62.255 308.48 62.255C311.047 62.255 312.937 62.8733 314.15 64.11C315.364 65.3233 315.97 66.8867 315.97 68.8V77.27C315.97 78.2967 316.04 79.2067 316.18 80H311.91C311.794 79.4867 311.735 78.7983 311.735 77.935C310.639 79.6383 308.947 80.49 306.66 80.49C304.887 80.49 303.452 79.9767 302.355 78.95C301.282 77.9233 300.745 76.71 300.745 75.31ZM307.64 77.025C308.737 77.025 309.635 76.7217 310.335 76.115C311.059 75.485 311.42 74.4583 311.42 73.035V72.265L307.535 72.86C306.112 73.07 305.4 73.7933 305.4 75.03C305.4 75.59 305.599 76.0683 305.995 76.465C306.392 76.8383 306.94 77.025 307.64 77.025ZM319.893 75.205L323.883 74.33C323.929 75.0767 324.221 75.7067 324.758 76.22C325.318 76.71 326.076 76.955 327.033 76.955C327.756 76.955 328.316 76.7917 328.713 76.465C329.109 76.1383 329.308 75.73 329.308 75.24C329.308 74.3767 328.689 73.8167 327.453 73.56L325.178 73.035C323.568 72.685 322.354 72.055 321.538 71.145C320.744 70.235 320.348 69.15 320.348 67.89C320.348 66.3267 320.954 64.9967 322.168 63.9C323.404 62.8033 324.944 62.255 326.788 62.255C327.954 62.255 328.981 62.43 329.868 62.78C330.754 63.1067 331.443 63.5383 331.933 64.075C332.423 64.5883 332.796 65.1133 333.053 65.65C333.309 66.1867 333.473 66.7117 333.543 67.225L329.658 68.1C329.564 67.4933 329.284 66.9567 328.818 66.49C328.374 66.0233 327.709 65.79 326.823 65.79C326.216 65.79 325.691 65.9533 325.248 66.28C324.828 66.6067 324.618 67.015 324.618 67.505C324.618 68.345 325.143 68.8583 326.193 69.045L328.643 69.57C330.299 69.92 331.559 70.5617 332.423 71.495C333.309 72.4283 333.753 73.5483 333.753 74.855C333.753 76.395 333.169 77.725 332.003 78.845C330.836 79.965 329.191 80.525 327.068 80.525C325.854 80.525 324.769 80.35 323.813 80C322.856 79.6267 322.109 79.16 321.573 78.6C321.059 78.0167 320.663 77.445 320.383 76.885C320.126 76.3017 319.963 75.7417 319.893 75.205ZM342.85 69.885V80H338.195V54.66H342.85V64.215C343.9 62.955 345.452 62.325 347.505 62.325C349.605 62.325 351.192 62.9667 352.265 64.25C353.362 65.51 353.91 67.1433 353.91 69.15V80H349.255V69.955C349.255 68.9283 348.987 68.1 348.45 67.47C347.937 66.84 347.144 66.525 346.07 66.525C345.114 66.525 344.344 66.84 343.76 67.47C343.2 68.1 342.897 68.905 342.85 69.885ZM358.285 75.31C358.285 73.84 358.763 72.6617 359.72 71.775C360.676 70.8883 361.913 70.3283 363.43 70.095L367.665 69.465C368.528 69.3483 368.96 68.94 368.96 68.24C368.96 67.5867 368.703 67.05 368.19 66.63C367.7 66.21 366.988 66 366.055 66C365.075 66 364.293 66.2683 363.71 66.805C363.15 67.3417 362.835 68.0067 362.765 68.8L358.635 67.925C358.798 66.4317 359.533 65.1133 360.84 63.97C362.146 62.8267 363.873 62.255 366.02 62.255C368.586 62.255 370.476 62.8733 371.69 64.11C372.903 65.3233 373.51 66.8867 373.51 68.8V77.27C373.51 78.2967 373.58 79.2067 373.72 80H369.45C369.333 79.4867 369.275 78.7983 369.275 77.935C368.178 79.6383 366.486 80.49 364.2 80.49C362.426 80.49 360.991 79.9767 359.895 78.95C358.821 77.9233 358.285 76.71 358.285 75.31ZM365.18 77.025C366.276 77.025 367.175 76.7217 367.875 76.115C368.598 75.485 368.96 74.4583 368.96 73.035V72.265L365.075 72.86C363.651 73.07 362.94 73.7933 362.94 75.03C362.94 75.59 363.138 76.0683 363.535 76.465C363.931 76.8383 364.48 77.025 365.18 77.025ZM405.294 61.1L400.954 62.43C400.791 61.5433 400.348 60.7383 399.624 60.015C398.901 59.2917 397.839 58.93 396.439 58.93C395.296 58.93 394.363 59.245 393.639 59.875C392.916 60.4817 392.554 61.2167 392.554 62.08C392.554 63.5967 393.453 64.53 395.249 64.88L398.714 65.545C400.908 65.965 402.611 66.84 403.824 68.17C405.038 69.5 405.644 71.0633 405.644 72.86C405.644 74.9133 404.828 76.71 403.194 78.25C401.584 79.7667 399.414 80.525 396.684 80.525C395.121 80.525 393.709 80.2917 392.449 79.825C391.189 79.3583 390.174 78.74 389.404 77.97C388.634 77.1767 388.028 76.3483 387.584 75.485C387.164 74.5983 386.908 73.6883 386.814 72.755L391.294 71.565C391.411 72.895 391.924 74.0033 392.834 74.89C393.768 75.7767 395.063 76.22 396.719 76.22C397.979 76.22 398.959 75.94 399.659 75.38C400.383 74.82 400.744 74.085 400.744 73.175C400.744 72.4517 400.476 71.8333 399.939 71.32C399.426 70.7833 398.691 70.4217 397.734 70.235L394.269 69.535C392.263 69.115 390.676 68.2867 389.509 67.05C388.343 65.8133 387.759 64.2733 387.759 62.43C387.759 60.2367 388.599 58.3933 390.279 56.9C391.983 55.4067 394.024 54.66 396.404 54.66C397.828 54.66 399.099 54.8583 400.219 55.255C401.339 55.6517 402.238 56.1883 402.914 56.865C403.591 57.5183 404.116 58.195 404.489 58.895C404.863 59.595 405.131 60.33 405.294 61.1ZM415.983 57.635V62.78H419.448V66.91H415.983V74.12C415.983 74.8433 416.147 75.3567 416.473 75.66C416.8 75.9633 417.313 76.115 418.013 76.115C418.643 76.115 419.122 76.0683 419.448 75.975V79.825C418.772 80.105 417.897 80.245 416.823 80.245C415.143 80.245 413.813 79.7783 412.833 78.845C411.853 77.8883 411.363 76.5817 411.363 74.925V66.91H408.248V62.78H409.123C409.987 62.78 410.64 62.535 411.083 62.045C411.55 61.5317 411.783 60.8667 411.783 60.05V57.635H415.983ZM434.363 62.71V67.4C433.897 67.3067 433.43 67.26 432.963 67.26C431.633 67.26 430.56 67.645 429.743 68.415C428.927 69.1617 428.518 70.3983 428.518 72.125V80H423.863V62.78H428.378V65.335C429.218 63.5383 430.852 62.64 433.278 62.64C433.535 62.64 433.897 62.6633 434.363 62.71ZM437.39 75.31C437.39 73.84 437.869 72.6617 438.825 71.775C439.782 70.8883 441.019 70.3283 442.535 70.095L446.77 69.465C447.634 69.3483 448.065 68.94 448.065 68.24C448.065 67.5867 447.809 67.05 447.295 66.63C446.805 66.21 446.094 66 445.16 66C444.18 66 443.399 66.2683 442.815 66.805C442.255 67.3417 441.94 68.0067 441.87 68.8L437.74 67.925C437.904 66.4317 438.639 65.1133 439.945 63.97C441.252 62.8267 442.979 62.255 445.125 62.255C447.692 62.255 449.582 62.8733 450.795 64.11C452.009 65.3233 452.615 66.8867 452.615 68.8V77.27C452.615 78.2967 452.685 79.2067 452.825 80H448.555C448.439 79.4867 448.38 78.7983 448.38 77.935C447.284 79.6383 445.592 80.49 443.305 80.49C441.532 80.49 440.097 79.9767 439 78.95C437.927 77.9233 437.39 76.71 437.39 75.31ZM444.285 77.025C445.382 77.025 446.28 76.7217 446.98 76.115C447.704 75.485 448.065 74.4583 448.065 73.035V72.265L444.18 72.86C442.757 73.07 442.045 73.7933 442.045 75.03C442.045 75.59 442.244 76.0683 442.64 76.465C443.037 76.8383 443.585 77.025 444.285 77.025ZM463.513 86.79H458.578L462.638 77.83L455.323 62.78H460.538L465.123 72.86L469.358 62.78H474.328L463.513 86.79ZM484.067 57.635V62.78H487.532V66.91H484.067V74.12C484.067 74.8433 484.23 75.3567 484.557 75.66C484.883 75.9633 485.397 76.115 486.097 76.115C486.727 76.115 487.205 76.0683 487.532 75.975V79.825C486.855 80.105 485.98 80.245 484.907 80.245C483.227 80.245 481.897 79.7783 480.917 78.845C479.937 77.8883 479.447 76.5817 479.447 74.925V66.91H476.332V62.78H477.207C478.07 62.78 478.723 62.535 479.167 62.045C479.633 61.5317 479.867 60.8667 479.867 60.05V57.635H484.067Z" fill="black" fill-opacity="0.8"/>
<path d="M284.16 136H280.268V116.148H292.812V119.816H284.132V124.716H291.86V128.272H284.16V136ZM303.154 122.168V125.92C302.78 125.845 302.407 125.808 302.034 125.808C300.97 125.808 300.111 126.116 299.458 126.732C298.804 127.329 298.478 128.319 298.478 129.7V136H294.754V122.224H298.366V124.268C299.038 122.831 300.344 122.112 302.286 122.112C302.491 122.112 302.78 122.131 303.154 122.168ZM309.332 131.996C310.023 132.687 310.854 133.032 311.824 133.032C312.795 133.032 313.616 132.687 314.288 131.996C314.979 131.305 315.324 130.344 315.324 129.112C315.324 127.88 314.979 126.919 314.288 126.228C313.616 125.537 312.795 125.192 311.824 125.192C310.854 125.192 310.023 125.537 309.332 126.228C308.66 126.919 308.324 127.88 308.324 129.112C308.324 130.344 308.66 131.305 309.332 131.996ZM306.644 123.876C308.026 122.495 309.752 121.804 311.824 121.804C313.896 121.804 315.614 122.495 316.976 123.876C318.358 125.257 319.048 127.003 319.048 129.112C319.048 131.221 318.358 132.967 316.976 134.348C315.614 135.729 313.896 136.42 311.824 136.42C309.752 136.42 308.026 135.729 306.644 134.348C305.282 132.967 304.6 131.221 304.6 129.112C304.6 127.003 305.282 125.257 306.644 123.876ZM325.712 128.076V136H321.988V122.224H325.6V123.932C325.992 123.26 326.552 122.747 327.28 122.392C328.008 122.037 328.773 121.86 329.576 121.86C331.2 121.86 332.432 122.373 333.272 123.4C334.131 124.408 334.56 125.715 334.56 127.32V136H330.836V127.964C330.836 127.143 330.621 126.48 330.192 125.976C329.781 125.472 329.147 125.22 328.288 125.22C327.504 125.22 326.879 125.491 326.412 126.032C325.945 126.573 325.712 127.255 325.712 128.076ZM342.932 118.108V122.224H345.704V125.528H342.932V131.296C342.932 131.875 343.062 132.285 343.324 132.528C343.585 132.771 343.996 132.892 344.556 132.892C345.06 132.892 345.442 132.855 345.704 132.78V135.86C345.162 136.084 344.462 136.196 343.604 136.196C342.26 136.196 341.196 135.823 340.412 135.076C339.628 134.311 339.236 133.265 339.236 131.94V125.528H336.744V122.224H337.444C338.134 122.224 338.657 122.028 339.012 121.636C339.385 121.225 339.572 120.693 339.572 120.04V118.108H342.932ZM356.177 129.336H348.057V126.032H356.177V129.336ZM372.134 136H359.702V116.148H372.134V119.788H363.566V124.324H371.322V127.768H363.566V132.36H372.134V136ZM379.278 128.076V136H375.554V122.224H379.166V123.932C379.558 123.26 380.118 122.747 380.846 122.392C381.574 122.037 382.34 121.86 383.142 121.86C384.766 121.86 385.998 122.373 386.838 123.4C387.697 124.408 388.126 125.715 388.126 127.32V136H384.402V127.964C384.402 127.143 384.188 126.48 383.758 125.976C383.348 125.472 382.713 125.22 381.854 125.22C381.07 125.22 380.445 125.491 379.978 126.032C379.512 126.573 379.278 127.255 379.278 128.076ZM405.038 115.728V133.508C405.038 134.423 405.075 135.253 405.15 136H401.594C401.501 135.533 401.454 135.001 401.454 134.404C401.137 134.983 400.633 135.449 399.942 135.804C399.27 136.159 398.486 136.336 397.59 136.336C395.63 136.336 394.015 135.655 392.746 134.292C391.495 132.911 390.87 131.175 390.87 129.084C390.87 127.049 391.486 125.341 392.718 123.96C393.969 122.579 395.555 121.888 397.478 121.888C399.457 121.888 400.754 122.457 401.37 123.596V115.728H405.038ZM394.622 129.084C394.622 130.297 394.939 131.259 395.574 131.968C396.209 132.659 397.03 133.004 398.038 133.004C399.027 133.004 399.839 132.649 400.474 131.94C401.109 131.231 401.426 130.269 401.426 129.056C401.426 127.861 401.109 126.928 400.474 126.256C399.839 125.565 399.027 125.22 398.038 125.22C397.049 125.22 396.227 125.565 395.574 126.256C394.939 126.947 394.622 127.889 394.622 129.084ZM420.14 132.416H423.22C424.956 132.416 426.384 131.875 427.504 130.792C428.624 129.709 429.184 128.141 429.184 126.088C429.184 124.035 428.624 122.467 427.504 121.384C426.384 120.283 424.965 119.732 423.248 119.732H420.14V132.416ZM423.36 136H416.276V116.148H423.388C426.281 116.148 428.633 117.035 430.444 118.808C432.273 120.581 433.188 123.008 433.188 126.088C433.188 129.149 432.273 131.567 430.444 133.34C428.614 135.113 426.253 136 423.36 136ZM439.056 127.544H445.216C445.178 126.779 444.898 126.135 444.376 125.612C443.872 125.089 443.125 124.828 442.136 124.828C441.24 124.828 440.512 125.108 439.952 125.668C439.392 126.228 439.093 126.853 439.056 127.544ZM445.58 131.128L448.688 132.052C448.314 133.321 447.577 134.367 446.476 135.188C445.393 136.009 444.04 136.42 442.416 136.42C440.437 136.42 438.757 135.757 437.376 134.432C435.994 133.088 435.304 131.296 435.304 129.056C435.304 126.928 435.976 125.192 437.32 123.848C438.664 122.485 440.25 121.804 442.08 121.804C444.208 121.804 445.869 122.439 447.064 123.708C448.277 124.977 448.884 126.723 448.884 128.944C448.884 129.093 448.874 129.261 448.856 129.448C448.856 129.635 448.856 129.784 448.856 129.896L448.828 130.092H438.972C439.009 130.988 439.364 131.735 440.036 132.332C440.708 132.929 441.51 133.228 442.444 133.228C444.03 133.228 445.076 132.528 445.58 131.128ZM464.535 122.224L459.187 136H455.463L449.835 122.224H453.923L457.339 131.464L460.615 122.224H464.535ZM469.106 127.544H475.266C475.229 126.779 474.949 126.135 474.426 125.612C473.922 125.089 473.176 124.828 472.186 124.828C471.29 124.828 470.562 125.108 470.002 125.668C469.442 126.228 469.144 126.853 469.106 127.544ZM475.63 131.128L478.738 132.052C478.365 133.321 477.628 134.367 476.526 135.188C475.444 136.009 474.09 136.42 472.466 136.42C470.488 136.42 468.808 135.757 467.426 134.432C466.045 133.088 465.354 131.296 465.354 129.056C465.354 126.928 466.026 125.192 467.37 123.848C468.714 122.485 470.301 121.804 472.13 121.804C474.258 121.804 475.92 122.439 477.114 123.708C478.328 124.977 478.934 126.723 478.934 128.944C478.934 129.093 478.925 129.261 478.906 129.448C478.906 129.635 478.906 129.784 478.906 129.896L478.878 130.092H469.022C469.06 130.988 469.414 131.735 470.086 132.332C470.758 132.929 471.561 133.228 472.494 133.228C474.081 133.228 475.126 132.528 475.63 131.128ZM485.591 136H481.867V115.728H485.591V136ZM493.274 131.996C493.965 132.687 494.795 133.032 495.766 133.032C496.737 133.032 497.558 132.687 498.23 131.996C498.921 131.305 499.266 130.344 499.266 129.112C499.266 127.88 498.921 126.919 498.23 126.228C497.558 125.537 496.737 125.192 495.766 125.192C494.795 125.192 493.965 125.537 493.274 126.228C492.602 126.919 492.266 127.88 492.266 129.112C492.266 130.344 492.602 131.305 493.274 131.996ZM490.586 123.876C491.967 122.495 493.694 121.804 495.766 121.804C497.838 121.804 499.555 122.495 500.918 123.876C502.299 125.257 502.99 127.003 502.99 129.112C502.99 131.221 502.299 132.967 500.918 134.348C499.555 135.729 497.838 136.42 495.766 136.42C493.694 136.42 491.967 135.729 490.586 134.348C489.223 132.967 488.542 131.221 488.542 129.112C488.542 127.003 489.223 125.257 490.586 123.876ZM509.653 141.32H505.929V122.224H509.541V123.904C509.877 123.344 510.419 122.877 511.165 122.504C511.912 122.112 512.78 121.916 513.769 121.916C515.729 121.916 517.279 122.588 518.417 123.932C519.556 125.257 520.125 126.975 520.125 129.084C520.125 131.193 519.519 132.929 518.305 134.292C517.111 135.655 515.552 136.336 513.629 136.336C511.8 136.336 510.475 135.776 509.653 134.656V141.32ZM515.477 131.968C516.131 131.259 516.457 130.307 516.457 129.112C516.457 127.917 516.131 126.975 515.477 126.284C514.843 125.593 514.031 125.248 513.041 125.248C512.052 125.248 511.231 125.603 510.577 126.312C509.924 127.003 509.597 127.936 509.597 129.112C509.597 130.288 509.924 131.231 510.577 131.94C511.231 132.649 512.052 133.004 513.041 133.004C514.031 133.004 514.843 132.659 515.477 131.968ZM525.79 127.544H531.95C531.913 126.779 531.633 126.135 531.11 125.612C530.606 125.089 529.859 124.828 528.87 124.828C527.974 124.828 527.246 125.108 526.686 125.668C526.126 126.228 525.827 126.853 525.79 127.544ZM532.314 131.128L535.422 132.052C535.049 133.321 534.311 134.367 533.21 135.188C532.127 136.009 530.774 136.42 529.15 136.42C527.171 136.42 525.491 135.757 524.11 134.432C522.729 133.088 522.038 131.296 522.038 129.056C522.038 126.928 522.71 125.192 524.054 123.848C525.398 122.485 526.985 121.804 528.814 121.804C530.942 121.804 532.603 122.439 533.798 123.708C535.011 124.977 535.618 126.723 535.618 128.944C535.618 129.093 535.609 129.261 535.59 129.448C535.59 129.635 535.59 129.784 535.59 129.896L535.562 130.092H525.706C525.743 130.988 526.098 131.735 526.77 132.332C527.442 132.929 528.245 133.228 529.178 133.228C530.765 133.228 531.81 132.528 532.314 131.128ZM546.951 122.168V125.92C546.577 125.845 546.204 125.808 545.831 125.808C544.767 125.808 543.908 126.116 543.255 126.732C542.601 127.329 542.275 128.319 542.275 129.7V136H538.551V122.224H542.163V124.268C542.835 122.831 544.141 122.112 546.083 122.112C546.288 122.112 546.577 122.131 546.951 122.168Z" fill="black" fill-opacity="0.64"/>
<path d="M594.405 94.303V97.684H596.682V100.398H594.405V105.136C594.405 105.611 594.512 105.949 594.727 106.148C594.942 106.347 595.279 106.447 595.739 106.447C596.153 106.447 596.467 106.416 596.682 106.355V108.885C596.237 109.069 595.662 109.161 594.957 109.161C593.853 109.161 592.979 108.854 592.335 108.241C591.691 107.612 591.369 106.754 591.369 105.665V100.398H589.322V97.684H589.897C590.464 97.684 590.894 97.523 591.185 97.201C591.492 96.8637 591.645 96.4267 591.645 95.89V94.303H594.405ZM602.664 105.711C603.231 106.278 603.914 106.562 604.711 106.562C605.508 106.562 606.183 106.278 606.735 105.711C607.302 105.144 607.586 104.354 607.586 103.342C607.586 102.33 607.302 101.54 606.735 100.973C606.183 100.406 605.508 100.122 604.711 100.122C603.914 100.122 603.231 100.406 602.664 100.973C602.112 101.54 601.836 102.33 601.836 103.342C601.836 104.354 602.112 105.144 602.664 105.711ZM600.456 99.041C601.591 97.9063 603.009 97.339 604.711 97.339C606.413 97.339 607.824 97.9063 608.943 99.041C610.078 100.176 610.645 101.609 610.645 103.342C610.645 105.075 610.078 106.508 608.943 107.643C607.824 108.778 606.413 109.345 604.711 109.345C603.009 109.345 601.591 108.778 600.456 107.643C599.337 106.508 598.777 105.075 598.777 103.342C598.777 101.609 599.337 100.176 600.456 99.041ZM628.954 92.486L620.789 109.207H618.029L626.171 92.486H628.954ZM633.224 100.168C632.411 100.168 631.729 100.452 631.177 101.019C630.625 101.586 630.349 102.361 630.349 103.342C630.349 104.323 630.625 105.105 631.177 105.688C631.744 106.255 632.434 106.539 633.247 106.539C633.968 106.539 634.543 106.355 634.972 105.987C635.401 105.604 635.693 105.151 635.846 104.63L638.537 105.527C638.261 106.57 637.663 107.467 636.743 108.218C635.823 108.969 634.658 109.345 633.247 109.345C631.56 109.345 630.142 108.778 628.992 107.643C627.857 106.493 627.29 105.059 627.29 103.342C627.29 101.609 627.85 100.176 628.969 99.041C630.104 97.9063 631.499 97.339 633.155 97.339C634.596 97.339 635.777 97.7147 636.697 98.466C637.617 99.202 638.207 100.099 638.468 101.157L635.731 102.077C635.363 100.804 634.527 100.168 633.224 100.168ZM644.17 105.711C644.738 106.278 645.42 106.562 646.217 106.562C647.015 106.562 647.689 106.278 648.241 105.711C648.809 105.144 649.092 104.354 649.092 103.342C649.092 102.33 648.809 101.54 648.241 100.973C647.689 100.406 647.015 100.122 646.217 100.122C645.42 100.122 644.738 100.406 644.17 100.973C643.618 101.54 643.342 102.33 643.342 103.342C643.342 104.354 643.618 105.144 644.17 105.711ZM641.962 99.041C643.097 97.9063 644.515 97.339 646.217 97.339C647.919 97.339 649.33 97.9063 650.449 99.041C651.584 100.176 652.151 101.609 652.151 103.342C652.151 105.075 651.584 106.508 650.449 107.643C649.33 108.778 647.919 109.345 646.217 109.345C644.515 109.345 643.097 108.778 641.962 107.643C640.843 106.508 640.283 105.075 640.283 103.342C640.283 101.609 640.843 100.176 641.962 99.041ZM665.813 92.348V106.953C665.813 107.704 665.843 108.387 665.905 109H662.984C662.907 108.617 662.869 108.18 662.869 107.689C662.608 108.164 662.194 108.548 661.627 108.839C661.075 109.13 660.431 109.276 659.695 109.276C658.085 109.276 656.758 108.716 655.716 107.597C654.688 106.462 654.175 105.036 654.175 103.319C654.175 101.648 654.681 100.245 655.693 99.11C656.72 97.9753 658.023 97.408 659.603 97.408C661.228 97.408 662.294 97.8757 662.8 98.811V92.348H665.813ZM657.257 103.319C657.257 104.316 657.517 105.105 658.039 105.688C658.56 106.255 659.235 106.539 660.063 106.539C660.875 106.539 661.542 106.248 662.064 105.665C662.585 105.082 662.846 104.293 662.846 103.296C662.846 102.315 662.585 101.548 662.064 100.996C661.542 100.429 660.875 100.145 660.063 100.145C659.25 100.145 658.575 100.429 658.039 100.996C657.517 101.563 657.257 102.338 657.257 103.319ZM671.822 102.054H676.882C676.852 101.425 676.622 100.896 676.192 100.467C675.778 100.038 675.165 99.823 674.352 99.823C673.616 99.823 673.018 100.053 672.558 100.513C672.098 100.973 671.853 101.487 671.822 102.054ZM677.181 104.998L679.734 105.757C679.428 106.8 678.822 107.658 677.917 108.333C677.028 109.008 675.916 109.345 674.582 109.345C672.957 109.345 671.577 108.801 670.442 107.712C669.308 106.608 668.74 105.136 668.74 103.296C668.74 101.548 669.292 100.122 670.396 99.018C671.5 97.8987 672.804 97.339 674.306 97.339C676.054 97.339 677.419 97.8603 678.4 98.903C679.397 99.9457 679.895 101.379 679.895 103.204C679.895 103.327 679.888 103.465 679.872 103.618C679.872 103.771 679.872 103.894 679.872 103.986L679.849 104.147H671.753C671.784 104.883 672.075 105.496 672.627 105.987C673.179 106.478 673.839 106.723 674.605 106.723C675.909 106.723 676.767 106.148 677.181 104.998ZM594.405 123.303V126.684H596.682V129.398H594.405V134.136C594.405 134.611 594.512 134.949 594.727 135.148C594.942 135.347 595.279 135.447 595.739 135.447C596.153 135.447 596.467 135.416 596.682 135.355V137.885C596.237 138.069 595.662 138.161 594.957 138.161C593.853 138.161 592.979 137.854 592.335 137.241C591.691 136.612 591.369 135.754 591.369 134.665V129.398H589.322V126.684H589.897C590.464 126.684 590.894 126.523 591.185 126.201C591.492 125.864 591.645 125.427 591.645 124.89V123.303H594.405ZM602.664 134.711C603.231 135.278 603.914 135.562 604.711 135.562C605.508 135.562 606.183 135.278 606.735 134.711C607.302 134.144 607.586 133.354 607.586 132.342C607.586 131.33 607.302 130.54 606.735 129.973C606.183 129.406 605.508 129.122 604.711 129.122C603.914 129.122 603.231 129.406 602.664 129.973C602.112 130.54 601.836 131.33 601.836 132.342C601.836 133.354 602.112 134.144 602.664 134.711ZM600.456 128.041C601.591 126.906 603.009 126.339 604.711 126.339C606.413 126.339 607.824 126.906 608.943 128.041C610.078 129.176 610.645 130.609 610.645 132.342C610.645 134.075 610.078 135.508 608.943 136.643C607.824 137.778 606.413 138.345 604.711 138.345C603.009 138.345 601.591 137.778 600.456 136.643C599.337 135.508 598.777 134.075 598.777 132.342C598.777 130.609 599.337 129.176 600.456 128.041ZM628.954 121.486L620.789 138.207H618.029L626.171 121.486H628.954ZM638.928 121.348V135.953C638.928 136.704 638.959 137.387 639.02 138H636.099C636.022 137.617 635.984 137.18 635.984 136.689C635.723 137.164 635.309 137.548 634.742 137.839C634.19 138.13 633.546 138.276 632.81 138.276C631.2 138.276 629.874 137.716 628.831 136.597C627.804 135.462 627.29 134.036 627.29 132.319C627.29 130.648 627.796 129.245 628.808 128.11C629.835 126.975 631.139 126.408 632.718 126.408C634.343 126.408 635.409 126.876 635.915 127.811V121.348H638.928ZM630.372 132.319C630.372 133.316 630.633 134.105 631.154 134.688C631.675 135.255 632.35 135.539 633.178 135.539C633.991 135.539 634.658 135.248 635.179 134.665C635.7 134.082 635.961 133.293 635.961 132.296C635.961 131.315 635.7 130.548 635.179 129.996C634.658 129.429 633.991 129.145 633.178 129.145C632.365 129.145 631.691 129.429 631.154 129.996C630.633 130.563 630.372 131.338 630.372 132.319ZM644.937 131.054H649.997C649.967 130.425 649.737 129.896 649.307 129.467C648.893 129.038 648.28 128.823 647.467 128.823C646.731 128.823 646.133 129.053 645.673 129.513C645.213 129.973 644.968 130.487 644.937 131.054ZM650.296 133.998L652.849 134.757C652.543 135.8 651.937 136.658 651.032 137.333C650.143 138.008 649.031 138.345 647.697 138.345C646.072 138.345 644.692 137.801 643.557 136.712C642.423 135.608 641.855 134.136 641.855 132.296C641.855 130.548 642.407 129.122 643.511 128.018C644.615 126.899 645.919 126.339 647.421 126.339C649.169 126.339 650.534 126.86 651.515 127.903C652.512 128.946 653.01 130.379 653.01 132.204C653.01 132.327 653.003 132.465 652.987 132.618C652.987 132.771 652.987 132.894 652.987 132.986L652.964 133.147H644.868C644.899 133.883 645.19 134.496 645.742 134.987C646.294 135.478 646.954 135.723 647.72 135.723C649.024 135.723 649.882 135.148 650.296 133.998ZM666.327 126.684L661.934 138H658.875L654.252 126.684H657.61L660.416 134.274L663.107 126.684H666.327ZM670.542 131.054H675.602C675.571 130.425 675.341 129.896 674.912 129.467C674.498 129.038 673.885 128.823 673.072 128.823C672.336 128.823 671.738 129.053 671.278 129.513C670.818 129.973 670.573 130.487 670.542 131.054ZM675.901 133.998L678.454 134.757C678.147 135.8 677.542 136.658 676.637 137.333C675.748 138.008 674.636 138.345 673.302 138.345C671.677 138.345 670.297 137.801 669.162 136.712C668.027 135.608 667.46 134.136 667.46 132.296C667.46 130.548 668.012 129.122 669.116 128.018C670.22 126.899 671.523 126.339 673.026 126.339C674.774 126.339 676.139 126.86 677.12 127.903C678.117 128.946 678.615 130.379 678.615 132.204C678.615 132.327 678.607 132.465 678.592 132.618C678.592 132.771 678.592 132.894 678.592 132.986L678.569 133.147H670.473C670.504 133.883 670.795 134.496 671.347 134.987C671.899 135.478 672.558 135.723 673.325 135.723C674.628 135.723 675.487 135.148 675.901 133.998ZM684.543 138H681.484V121.348H684.543V138ZM691.314 134.711C691.881 135.278 692.564 135.562 693.361 135.562C694.158 135.562 694.833 135.278 695.385 134.711C695.952 134.144 696.236 133.354 696.236 132.342C696.236 131.33 695.952 130.54 695.385 129.973C694.833 129.406 694.158 129.122 693.361 129.122C692.564 129.122 691.881 129.406 691.314 129.973C690.762 130.54 690.486 131.33 690.486 132.342C690.486 133.354 690.762 134.144 691.314 134.711ZM689.106 128.041C690.241 126.906 691.659 126.339 693.361 126.339C695.063 126.339 696.474 126.906 697.593 128.041C698.728 129.176 699.295 130.609 699.295 132.342C699.295 134.075 698.728 135.508 697.593 136.643C696.474 137.778 695.063 138.345 693.361 138.345C691.659 138.345 690.241 137.778 689.106 136.643C687.987 135.508 687.427 134.075 687.427 132.342C687.427 130.609 687.987 129.176 689.106 128.041ZM705.229 142.37H702.17V126.684H705.137V128.064C705.413 127.604 705.857 127.221 706.471 126.914C707.084 126.592 707.797 126.431 708.61 126.431C710.22 126.431 711.492 126.983 712.428 128.087C713.363 129.176 713.831 130.586 713.831 132.319C713.831 134.052 713.332 135.478 712.336 136.597C711.354 137.716 710.074 138.276 708.495 138.276C706.992 138.276 705.903 137.816 705.229 136.896V142.37ZM710.013 134.688C710.549 134.105 710.818 133.323 710.818 132.342C710.818 131.361 710.549 130.586 710.013 130.019C709.491 129.452 708.824 129.168 708.012 129.168C707.199 129.168 706.524 129.459 705.988 130.042C705.451 130.609 705.183 131.376 705.183 132.342C705.183 133.308 705.451 134.082 705.988 134.665C706.524 135.248 707.199 135.539 708.012 135.539C708.824 135.539 709.491 135.255 710.013 134.688Z" fill="black" fill-opacity="0.64"/>
<line x1="261" y1="37" x2="261" y2="118" stroke="#FF9431" stroke-width="6"/>
<line x1="740" y1="31" x2="740" y2="141" stroke="#FF9431" stroke-width="6"/>
<line x1="578.5" y1="91" x2="578.5" y2="141" stroke="#FF9431" stroke-width="3"/>
<line x1="415" y1="34" x2="280" y2="34" stroke="#FF9431" stroke-width="6"/>
<line x1="488" y1="100.5" x2="280" y2="100.5" stroke="#FF9431" stroke-opacity="0.64" stroke-width="3"/>
<path d="M279.125 167C278.502 167 278 167.502 278 168.125V189.875C278 190.498 278.502 191 279.125 191H300.875C301.498 191 302 190.498 302 189.875V168.125C302 167.502 301.498 167 300.875 167H279.125ZM296.488 176.75C297.1 176.75 297.642 176.787 298.115 176.861C298.561 176.928 298.999 177.042 299.421 177.201V179.659C299.218 179.519 299.003 179.398 298.778 179.298C298.546 179.194 298.306 179.107 298.061 179.038C297.597 178.909 297.117 178.841 296.635 178.838C296.335 178.838 296.062 178.866 295.816 178.924C295.597 178.971 295.386 179.053 295.193 179.166C295.023 179.27 294.893 179.395 294.8 179.54C294.706 179.686 294.658 179.856 294.66 180.03C294.66 180.226 294.713 180.403 294.816 180.559C294.92 180.715 295.068 180.863 295.259 181.003C295.45 181.143 295.682 181.279 295.955 181.413C296.228 181.548 296.537 181.687 296.881 181.829C297.351 182.026 297.773 182.236 298.147 182.457C298.521 182.679 298.842 182.93 299.11 183.21C299.378 183.489 299.582 183.808 299.724 184.167C299.866 184.526 299.938 184.943 299.938 185.42C299.938 186.077 299.813 186.63 299.565 187.076C299.323 187.516 298.975 187.889 298.553 188.161C298.098 188.449 297.594 188.651 297.066 188.757C296.5 188.877 295.903 188.937 295.276 188.937C294.659 188.94 294.043 188.885 293.436 188.773C292.911 188.682 292.402 188.516 291.924 188.28V185.65C292.828 186.419 293.974 186.844 295.161 186.85C295.494 186.85 295.785 186.82 296.033 186.76C296.282 186.7 296.489 186.616 296.656 186.51C296.822 186.402 296.946 186.276 297.029 186.13C297.121 185.96 297.162 185.768 297.149 185.575C297.136 185.382 297.069 185.197 296.955 185.041C296.806 184.844 296.625 184.675 296.418 184.541C296.162 184.371 295.892 184.223 295.611 184.097C295.278 183.945 294.943 183.8 294.604 183.661C293.686 183.278 293.002 182.809 292.551 182.256C292.101 181.703 291.875 181.034 291.875 180.251C291.875 179.637 291.998 179.11 292.244 178.669C292.49 178.228 292.824 177.865 293.248 177.58C293.696 177.284 294.194 177.071 294.718 176.951C295.298 176.814 295.892 176.747 296.488 176.75V176.75ZM281.375 176.938H290.938V179.104H287.506V188.75H284.789V179.104H281.375V176.938Z" fill="black"/>
<path d="M375.94 179.002C375.94 179.595 375.704 180.164 375.285 180.583C374.866 181.003 374.297 181.238 373.705 181.238C373.112 181.238 372.543 181.003 372.123 180.584C371.704 180.164 371.469 179.596 371.469 179.002C371.469 178.41 371.704 177.841 372.123 177.422C372.542 177.002 373.111 176.767 373.704 176.766C374.297 176.766 374.865 177.002 375.285 177.421C375.704 177.841 375.94 178.409 375.94 179.002V179.002ZM378.588 168.312C377.242 168.312 375.481 169.273 373.7 170.935C371.92 169.282 370.158 168.332 368.813 168.332C368.403 168.332 368.03 168.425 367.707 168.61C366.332 169.403 366.024 171.875 366.734 174.976C363.69 175.916 361.71 177.418 361.71 179.002C361.71 180.592 363.7 182.1 366.753 183.033C366.049 186.146 366.363 188.621 367.741 189.413C368.061 189.6 368.431 189.688 368.843 189.688C370.188 189.688 371.95 188.728 373.731 187.064C375.511 188.718 377.273 189.667 378.618 189.667C379.028 189.667 379.401 189.577 379.724 189.392C381.098 188.6 381.407 186.128 380.697 183.026C383.73 182.094 385.71 180.588 385.71 179.002C385.71 177.412 383.72 175.905 380.667 174.97C381.371 171.861 381.057 169.383 379.679 168.59C379.361 168.406 378.991 168.314 378.587 168.312H378.588ZM378.583 169.403V169.409C378.808 169.409 378.989 169.452 379.141 169.535C379.807 169.917 380.096 171.371 379.871 173.24C379.817 173.7 379.729 174.185 379.621 174.68C378.661 174.444 377.615 174.262 376.514 174.145C375.854 173.24 375.169 172.418 374.479 171.698C376.071 170.218 377.566 169.406 378.584 169.403L378.583 169.403ZM368.813 169.423C369.825 169.423 371.327 170.23 372.923 171.702C372.237 172.422 371.553 173.239 370.903 174.144C369.796 174.261 368.749 174.442 367.79 174.682C367.678 174.192 367.595 173.718 367.536 173.262C367.306 171.394 367.59 169.942 368.25 169.555C368.44 169.465 368.65 169.428 368.813 169.423V169.423ZM373.695 172.472C374.15 172.94 374.605 173.464 375.055 174.036C374.615 174.016 374.165 174.003 373.71 174.003C373.25 174.003 372.795 174.012 372.35 174.036C372.79 173.464 373.245 172.94 373.695 172.471V172.472ZM373.71 175.099C374.45 175.099 375.187 175.132 375.912 175.191C376.318 175.773 376.714 176.395 377.095 177.052C377.467 177.692 377.805 178.341 378.113 178.997C377.805 179.652 377.467 180.308 377.1 180.948C376.72 181.608 376.327 182.236 375.92 182.818C375.192 182.881 374.454 182.915 373.71 182.915C372.97 182.915 372.233 182.881 371.508 182.823C371.102 182.241 370.706 181.618 370.325 180.962C369.953 180.322 369.615 179.672 369.307 179.016C369.61 178.359 369.953 177.703 370.32 177.062C370.7 176.402 371.093 175.776 371.5 175.194C372.228 175.13 372.966 175.096 373.71 175.096V175.099ZM370.075 175.352C369.835 175.729 369.595 176.115 369.371 176.512C369.146 176.902 368.936 177.294 368.736 177.686C368.471 177.03 368.246 176.377 368.06 175.74C368.7 175.59 369.375 175.456 370.075 175.353V175.352ZM377.335 175.352C378.03 175.455 378.7 175.583 379.341 175.74C379.161 176.372 378.936 177.021 378.681 177.672C378.481 177.282 378.271 176.889 378.041 176.498C377.816 176.106 377.576 175.724 377.336 175.352H377.335ZM380.398 176.028C380.882 176.178 381.342 176.345 381.773 176.526C383.505 177.266 384.625 178.234 384.625 179.002C384.62 179.77 383.5 180.741 381.768 181.476C381.348 181.656 380.888 181.818 380.413 181.969C380.133 181.011 379.767 180.014 379.313 178.99C379.763 177.973 380.123 176.98 380.398 176.026V176.028ZM367.003 176.031C367.281 176.991 367.648 177.988 368.103 179.011C367.653 180.028 367.291 181.022 367.017 181.976C366.533 181.826 366.073 181.658 365.647 181.476C363.915 180.739 362.795 179.77 362.795 179.002C362.795 178.234 363.915 177.26 365.647 176.526C366.067 176.346 366.527 176.183 367.003 176.031V176.031ZM378.681 180.311C378.946 180.968 379.171 181.623 379.357 182.259C378.717 182.416 378.041 182.549 377.341 182.649C377.581 182.274 377.821 181.887 378.046 181.491C378.271 181.101 378.481 180.703 378.682 180.311H378.681ZM368.736 180.332C368.936 180.724 369.146 181.115 369.376 181.507C369.606 181.897 369.841 182.278 370.081 182.649C369.386 182.547 368.716 182.42 368.075 182.264C368.255 181.634 368.481 180.981 368.735 180.33L368.736 180.332ZM379.63 183.318C379.742 183.811 379.83 184.287 379.884 184.742C380.114 186.61 379.83 188.062 379.17 188.45C379.023 188.54 378.832 188.578 378.607 188.578C377.595 188.578 376.093 187.771 374.497 186.298C375.183 185.578 375.867 184.761 376.517 183.857C377.624 183.739 378.671 183.558 379.63 183.318V183.318ZM367.8 183.328C368.76 183.562 369.806 183.743 370.907 183.86C371.567 184.765 372.252 185.588 372.942 186.307C371.347 187.79 369.85 188.602 368.832 188.602C368.612 188.597 368.426 188.552 368.279 188.47C367.613 188.09 367.324 186.636 367.549 184.767C367.603 184.307 367.691 183.822 367.799 183.328H367.8ZM372.36 183.968C372.8 183.988 373.25 184.002 373.705 184.002C374.165 184.002 374.62 183.992 375.065 183.968C374.625 184.54 374.17 185.064 373.72 185.534C373.265 185.064 372.81 184.54 372.36 183.968Z" fill="black"/>
<path d="M446.821 167C446.044 167 445.419 167.625 445.419 168.402V189.598C445.419 190.375 446.044 191 446.821 191H468.017C468.794 191 469.419 190.375 469.419 189.598V168.402C469.419 167.625 468.794 167 468.017 167H446.821ZM449.703 172.465H452.741V185.533H449.703V184.547H451.566V173.45H449.703V172.465ZM462.097 172.465H465.135V173.45H463.272V184.548H465.135V185.534H462.097V172.465ZM454.241 176.015H455.591C455.699 176.456 455.825 176.929 455.969 177.433C456.122 177.928 456.279 178.423 456.441 178.918C456.612 179.404 456.783 179.876 456.954 180.335C457.125 180.795 457.287 181.204 457.44 181.564C457.593 181.204 457.755 180.794 457.926 180.335C458.097 179.876 458.264 179.404 458.426 178.918C458.596 178.423 458.754 177.928 458.898 177.433C459.051 176.929 459.182 176.456 459.29 176.015H460.586C460.246 177.298 459.831 178.56 459.344 179.795C458.923 180.889 458.468 181.969 457.98 183.035H456.846C456.357 181.968 455.898 180.888 455.469 179.795C454.991 178.558 454.581 177.297 454.241 176.015V176.015Z" fill="black"/>
<path d="M539.769 191C539.448 191 539.128 190.916 538.847 190.753L535.911 189.016C535.473 188.771 535.687 188.684 535.831 188.633C536.416 188.43 536.534 188.383 537.159 188.029C537.224 187.992 537.31 188.006 537.377 188.046L539.633 189.385C539.715 189.43 539.83 189.43 539.905 189.385L548.7 184.309C548.782 184.262 548.834 184.168 548.834 184.071V173.921C548.834 173.822 548.781 173.729 548.697 173.679L539.906 168.607C539.825 168.56 539.717 168.56 539.635 168.607L530.846 173.68C530.761 173.729 530.707 173.825 530.707 173.921V184.071C530.707 184.168 530.761 184.26 530.846 184.306L533.255 185.698C534.562 186.352 535.363 185.582 535.363 184.808V174.787C535.363 174.645 535.477 174.534 535.619 174.534H536.734C536.873 174.534 536.989 174.646 536.989 174.787V184.808C536.989 186.553 536.039 187.553 534.385 187.553C533.877 187.553 533.476 187.553 532.359 187.002L530.051 185.675C529.481 185.346 529.129 184.73 529.129 184.071V173.921C529.129 173.262 529.482 172.646 530.051 172.318L538.846 167.236C539.403 166.921 540.142 166.921 540.694 167.236L549.488 172.318C550.058 172.647 550.412 173.262 550.412 173.921V184.071C550.412 184.73 550.058 185.344 549.488 185.675L540.694 190.753C540.414 190.916 540.095 191 539.769 191ZM546.87 180.993C546.87 179.093 545.586 178.587 542.883 178.23C540.152 177.869 539.874 177.682 539.874 177.043C539.874 176.515 540.109 175.81 542.132 175.81C543.939 175.81 544.605 176.199 544.879 177.417C544.903 177.532 545.008 177.616 545.126 177.616H546.267C546.338 177.616 546.405 177.585 546.453 177.535C546.501 177.481 546.527 177.412 546.52 177.339C546.343 175.241 544.949 174.263 542.132 174.263C539.624 174.263 538.128 175.321 538.128 177.096C538.128 179.021 539.616 179.553 542.023 179.791C544.903 180.073 545.126 180.494 545.126 181.06C545.126 182.043 544.337 182.462 542.484 182.462C540.157 182.462 539.645 181.878 539.473 180.72C539.453 180.596 539.347 180.505 539.22 180.505H538.083C537.942 180.505 537.829 180.617 537.829 180.758C537.829 182.24 538.635 184.006 542.484 184.006C545.272 184.007 546.87 182.91 546.87 180.993Z" fill="black"/>
<path d="M634.121 185.588C633.772 185.721 633.386 185.72 633.037 185.588C632.688 185.455 632.4 185.199 632.226 184.868L628.776 180.097L628.276 179.431L624.273 184.875C624.11 185.191 623.837 185.438 623.506 185.568C623.174 185.699 622.806 185.704 622.471 185.583L627.629 178.662L622.831 172.411C623.176 172.287 623.554 172.286 623.9 172.407C624.246 172.528 624.539 172.765 624.731 173.078L628.307 177.907L631.903 173.098C632.068 172.786 632.34 172.546 632.67 172.423C633 172.3 633.363 172.302 633.691 172.429L631.829 174.901L629.307 178.183C629.237 178.246 629.181 178.323 629.143 178.408C629.104 178.494 629.085 178.587 629.085 178.681C629.085 178.774 629.104 178.867 629.143 178.953C629.181 179.038 629.237 179.115 629.307 179.178L634.111 185.59L634.121 185.588ZM610.123 178.577L610.543 176.502C611.697 172.399 616.401 170.692 619.637 173.232C621.532 174.72 622.005 176.829 621.912 179.205H611.237C611.064 183.448 614.126 186.01 618.041 184.701C618.676 184.472 619.244 184.09 619.695 183.588C620.145 183.086 620.464 182.48 620.623 181.825C620.83 181.159 621.171 181.044 621.797 181.236C621.693 182.049 621.406 182.827 620.957 183.512C620.509 184.198 619.911 184.773 619.208 185.194C618.048 185.828 616.716 186.08 615.404 185.912C614.092 185.745 612.866 185.167 611.902 184.26C610.949 183.188 610.373 181.833 610.262 180.403C610.262 180.168 610.182 179.948 610.128 179.737C610.123 179.35 610.121 178.964 610.121 178.577L610.123 178.577ZM611.25 178.291H620.904C620.844 175.215 618.903 173.033 616.314 173.013C613.432 172.973 611.37 175.107 611.243 178.277L611.25 178.291Z" fill="black"/>
<path d="M716.975 181.723C716.961 181.681 716.942 181.641 716.918 181.604C716.779 181.341 716.442 181.262 715.911 181.372C714.258 181.713 713.618 181.503 713.385 181.353C714.727 179.304 715.83 176.831 716.427 174.523C716.698 173.472 717.225 170.999 716.549 169.791C716.506 169.709 716.455 169.63 716.398 169.556C715.108 167.909 713.216 167.025 710.925 167.001C709.431 166.985 708.155 167.347 707.809 167.48C707.638 167.448 707.466 167.421 707.293 167.398C706.86 167.32 706.422 167.277 705.982 167.271C704.8 167.252 703.778 167.535 702.932 168.111C702.075 167.79 698.143 166.466 695.71 168.19C694.351 169.153 693.724 170.873 693.846 173.304C693.886 174.122 694.352 176.638 695.088 179.048C695.548 180.554 696.027 181.75 696.521 182.63C697.074 183.624 697.647 184.223 698.236 184.419C698.683 184.569 699.368 184.564 700.094 183.692C700.895 182.728 701.684 181.866 702.038 181.485C702.473 181.72 702.945 181.847 703.428 181.862C703.428 181.863 703.429 181.865 703.429 181.866C703.344 181.966 703.262 182.068 703.181 182.171C702.843 182.602 702.772 182.691 701.681 182.916C701.371 182.98 700.547 183.15 700.535 183.727C700.532 183.85 700.568 183.958 700.627 184.054C700.854 184.477 701.548 184.664 701.642 184.687C702.976 185.021 704.146 184.779 705.013 184.008C704.996 186.239 705.091 188.426 705.359 189.096C705.58 189.649 706.12 191 707.828 191C708.078 191 708.354 190.971 708.657 190.906C710.439 190.524 711.213 189.736 711.512 188C711.663 187.129 711.914 185.125 712.051 183.899C712.068 183.829 712.087 183.778 712.108 183.763C712.109 183.762 712.178 183.716 712.535 183.793C712.55 183.796 712.565 183.799 712.58 183.8L712.834 183.822L712.848 183.823C713.695 183.862 714.76 183.681 715.38 183.393C716.023 183.094 717.185 182.36 716.975 181.723V181.723ZM695.786 178.877C695.043 176.441 694.608 173.991 694.574 173.305C694.465 171.133 694.991 169.622 696.136 168.812C697.973 167.513 700.976 168.271 702.244 168.682C702.241 168.685 702.238 168.688 702.235 168.691C700.211 170.735 700.259 174.227 700.264 174.441C700.264 174.523 700.27 174.64 700.28 174.8C700.315 175.387 700.38 176.481 700.206 177.719C700.046 178.869 700.4 179.995 701.179 180.808C701.26 180.892 701.344 180.971 701.431 181.045C701.084 181.417 700.331 182.238 699.529 183.203C698.961 183.885 698.569 183.754 698.44 183.711C698.048 183.581 697.627 183.124 697.202 182.389C696.722 181.55 696.238 180.357 695.786 178.877V178.877ZM701.794 183.964C701.622 183.921 701.466 183.85 701.361 183.786C701.45 183.747 701.599 183.696 701.845 183.646C703.128 183.381 703.326 183.195 703.759 182.645C703.858 182.519 703.971 182.377 704.126 182.203C704.16 182.165 704.185 182.121 704.2 182.073C704.371 181.922 704.472 181.963 704.637 182.031C704.793 182.096 704.945 182.291 705.006 182.506C705.035 182.608 705.068 182.801 704.961 182.951C704.057 184.217 702.74 184.2 701.794 183.964ZM703.888 179.976L703.835 180.117C703.702 180.473 703.578 180.805 703.502 181.12C702.834 181.118 702.185 180.832 701.691 180.317C701.063 179.662 700.778 178.751 700.909 177.817C701.091 176.509 701.024 175.37 700.988 174.758C700.983 174.673 700.978 174.598 700.975 174.538C701.271 174.276 702.641 173.542 703.618 173.766C704.064 173.868 704.336 174.172 704.449 174.694C705.033 177.398 704.526 178.525 704.119 179.43C704.035 179.617 703.955 179.793 703.888 179.976V179.976ZM711.251 184.548C711.234 184.725 711.215 184.924 711.189 185.144L711.043 185.582C711.032 185.617 711.026 185.653 711.025 185.69C711.019 186.165 710.971 186.339 710.91 186.559C710.847 186.789 710.775 187.048 710.731 187.617C710.621 189.031 709.853 189.844 708.314 190.173C706.798 190.498 706.529 189.677 706.292 188.952C706.268 188.876 706.243 188.8 706.216 188.725C706 188.139 706.024 187.313 706.058 186.17C706.075 185.609 706.033 184.269 705.728 183.524C705.732 183.231 705.739 182.933 705.747 182.632C705.748 182.594 705.743 182.556 705.732 182.519C705.722 182.449 705.707 182.38 705.688 182.311C705.565 181.883 705.266 181.525 704.908 181.376C704.766 181.317 704.504 181.209 704.19 181.289C704.257 181.013 704.373 180.702 704.499 180.364L704.552 180.222C704.612 180.062 704.686 179.897 704.765 179.721C705.192 178.774 705.776 177.476 705.142 174.544C704.904 173.446 704.111 172.91 702.909 173.034C702.189 173.109 701.529 173.4 701.201 173.566C701.135 173.6 701.069 173.634 701.005 173.67C701.097 172.564 701.443 170.496 702.74 169.188C702.837 169.091 702.938 168.999 703.044 168.912C703.096 168.902 703.146 168.88 703.188 168.848C703.941 168.277 704.883 167.997 705.99 168.015C706.4 168.022 706.792 168.049 707.165 168.096C709.104 168.451 710.409 169.543 711.201 170.479C712.015 171.441 712.456 172.41 712.632 172.933C711.309 172.799 710.408 173.06 709.952 173.712C708.959 175.131 710.495 177.885 711.233 179.209C711.368 179.451 711.485 179.661 711.522 179.75C711.762 180.332 712.074 180.721 712.301 181.005C712.37 181.092 712.438 181.177 712.489 181.25C712.088 181.366 711.368 181.633 711.434 182.967C711.422 183.123 711.392 183.414 711.351 183.782C711.305 183.99 711.28 184.242 711.251 184.548V184.548ZM712.142 182.927C712.101 182.095 712.411 182.009 712.738 181.917C712.784 181.904 712.829 181.891 712.873 181.876C712.916 181.913 712.961 181.948 713.008 181.979C713.578 182.355 714.59 182.4 716.014 182.113C715.813 182.29 715.496 182.513 715.061 182.714C714.651 182.905 713.965 183.047 713.314 183.078C712.594 183.112 712.228 182.997 712.142 182.927V182.927ZM712.711 173.656C712.705 174.007 712.657 174.325 712.606 174.658C712.551 175.015 712.494 175.385 712.479 175.834C712.465 176.271 712.52 176.725 712.573 177.164C712.679 178.051 712.789 178.964 712.365 179.865C712.295 179.741 712.232 179.612 712.178 179.48C712.125 179.352 712.011 179.147 711.852 178.863C711.237 177.759 709.795 175.174 710.533 174.119C710.913 173.576 711.874 173.553 712.711 173.656V173.656ZM712.94 180.67C712.911 180.634 712.883 180.598 712.854 180.562L712.819 180.518C713.545 179.318 713.403 178.132 713.277 177.079C713.225 176.647 713.176 176.24 713.188 175.857C713.201 175.451 713.255 175.102 713.307 174.766C713.371 174.351 713.435 173.921 713.418 173.415C713.431 173.362 713.436 173.299 713.429 173.225C713.384 172.739 712.829 171.287 711.7 169.972C711.092 169.265 710.21 168.475 709.011 167.932C709.536 167.826 710.244 167.729 711.035 167.746C713.087 167.792 714.71 168.56 715.86 170.029C715.884 170.061 715.906 170.094 715.926 170.129C716.649 171.485 715.65 176.404 712.94 180.67V180.67ZM704.123 174.553C704.098 174.733 703.814 174.976 703.502 174.976C703.475 174.976 703.448 174.974 703.421 174.97C703.234 174.944 703.045 174.826 702.915 174.655C702.869 174.594 702.795 174.477 702.81 174.37C702.815 174.33 702.836 174.272 702.902 174.221C703.02 174.132 703.254 174.099 703.512 174.135C703.828 174.179 704.154 174.329 704.123 174.553V174.553ZM712.054 174.142C712.065 174.221 712.005 174.343 711.9 174.452C711.832 174.524 711.688 174.648 711.493 174.675C711.468 174.679 711.443 174.68 711.418 174.681C711.124 174.681 710.876 174.446 710.857 174.309C710.833 174.132 711.121 173.998 711.418 173.957C711.715 173.915 712.029 173.966 712.054 174.142V174.142Z" fill="black"/>
</svg>
