<svg width="995" height="222" viewBox="0 0 995 222" fill="none" xmlns="http://www.w3.org/2000/svg">
<rect width="995" height="222" fill="#E9DFAF"/>
<path d="M295.7 91.49H299.515C300.705 91.49 301.65 91.175 302.35 90.545C303.05 89.8917 303.4 89.0283 303.4 87.955C303.4 86.8583 303.05 85.995 302.35 85.365C301.673 84.7117 300.728 84.385 299.515 84.385H295.7V91.49ZM300.11 95.655H295.665V105H290.835V80.185H300.11C302.537 80.185 304.497 80.9083 305.99 82.355C307.507 83.8017 308.265 85.6567 308.265 87.92C308.265 90.1833 307.507 92.0383 305.99 93.485C304.497 94.9317 302.537 95.655 300.11 95.655ZM310.745 100.31C310.745 98.84 311.224 97.6617 312.18 96.775C313.137 95.8883 314.374 95.3283 315.89 95.095L320.125 94.465C320.989 94.3483 321.42 93.94 321.42 93.24C321.42 92.5867 321.164 92.05 320.65 91.63C320.16 91.21 319.449 91 318.515 91C317.535 91 316.754 91.2683 316.17 91.805C315.61 92.3417 315.295 93.0067 315.225 93.8L311.095 92.925C311.259 91.4317 311.994 90.1133 313.3 88.97C314.607 87.8267 316.334 87.255 318.48 87.255C321.047 87.255 322.937 87.8733 324.15 89.11C325.364 90.3233 325.97 91.8867 325.97 93.8V102.27C325.97 103.297 326.04 104.207 326.18 105H321.91C321.794 104.487 321.735 103.798 321.735 102.935C320.639 104.638 318.947 105.49 316.66 105.49C314.887 105.49 313.452 104.977 312.355 103.95C311.282 102.923 310.745 101.71 310.745 100.31ZM317.64 102.025C318.737 102.025 319.635 101.722 320.335 101.115C321.059 100.485 321.42 99.4583 321.42 98.035V97.265L317.535 97.86C316.112 98.07 315.4 98.7933 315.4 100.03C315.4 100.59 315.599 101.068 315.995 101.465C316.392 101.838 316.94 102.025 317.64 102.025ZM329.893 100.205L333.883 99.33C333.929 100.077 334.221 100.707 334.758 101.22C335.318 101.71 336.076 101.955 337.033 101.955C337.756 101.955 338.316 101.792 338.713 101.465C339.109 101.138 339.308 100.73 339.308 100.24C339.308 99.3767 338.689 98.8167 337.453 98.56L335.178 98.035C333.568 97.685 332.354 97.055 331.538 96.145C330.744 95.235 330.348 94.15 330.348 92.89C330.348 91.3267 330.954 89.9967 332.168 88.9C333.404 87.8033 334.944 87.255 336.788 87.255C337.954 87.255 338.981 87.43 339.868 87.78C340.754 88.1067 341.443 88.5383 341.933 89.075C342.423 89.5883 342.796 90.1133 343.053 90.65C343.309 91.1867 343.473 91.7117 343.543 92.225L339.658 93.1C339.564 92.4933 339.284 91.9567 338.818 91.49C338.374 91.0233 337.709 90.79 336.823 90.79C336.216 90.79 335.691 90.9533 335.248 91.28C334.828 91.6067 334.618 92.015 334.618 92.505C334.618 93.345 335.143 93.8583 336.193 94.045L338.643 94.57C340.299 94.92 341.559 95.5617 342.423 96.495C343.309 97.4283 343.753 98.5483 343.753 99.855C343.753 101.395 343.169 102.725 342.003 103.845C340.836 104.965 339.191 105.525 337.068 105.525C335.854 105.525 334.769 105.35 333.813 105C332.856 104.627 332.109 104.16 331.573 103.6C331.059 103.017 330.663 102.445 330.383 101.885C330.126 101.302 329.963 100.742 329.893 100.205ZM352.85 94.885V105H348.195V79.66H352.85V89.215C353.9 87.955 355.452 87.325 357.505 87.325C359.605 87.325 361.192 87.9667 362.265 89.25C363.362 90.51 363.91 92.1433 363.91 94.15V105H359.255V94.955C359.255 93.9283 358.987 93.1 358.45 92.47C357.937 91.84 357.144 91.525 356.07 91.525C355.114 91.525 354.344 91.84 353.76 92.47C353.2 93.1 352.897 93.905 352.85 94.885ZM368.285 100.31C368.285 98.84 368.763 97.6617 369.72 96.775C370.676 95.8883 371.913 95.3283 373.43 95.095L377.665 94.465C378.528 94.3483 378.96 93.94 378.96 93.24C378.96 92.5867 378.703 92.05 378.19 91.63C377.7 91.21 376.988 91 376.055 91C375.075 91 374.293 91.2683 373.71 91.805C373.15 92.3417 372.835 93.0067 372.765 93.8L368.635 92.925C368.798 91.4317 369.533 90.1133 370.84 88.97C372.146 87.8267 373.873 87.255 376.02 87.255C378.586 87.255 380.476 87.8733 381.69 89.11C382.903 90.3233 383.51 91.8867 383.51 93.8V102.27C383.51 103.297 383.58 104.207 383.72 105H379.45C379.333 104.487 379.275 103.798 379.275 102.935C378.178 104.638 376.486 105.49 374.2 105.49C372.426 105.49 370.991 104.977 369.895 103.95C368.821 102.923 368.285 101.71 368.285 100.31ZM375.18 102.025C376.276 102.025 377.175 101.722 377.875 101.115C378.598 100.485 378.96 99.4583 378.96 98.035V97.265L375.075 97.86C373.651 98.07 372.94 98.7933 372.94 100.03C372.94 100.59 373.138 101.068 373.535 101.465C373.931 101.838 374.48 102.025 375.18 102.025ZM415.294 86.1L410.954 87.43C410.791 86.5433 410.348 85.7383 409.624 85.015C408.901 84.2917 407.839 83.93 406.439 83.93C405.296 83.93 404.363 84.245 403.639 84.875C402.916 85.4817 402.554 86.2167 402.554 87.08C402.554 88.5967 403.453 89.53 405.249 89.88L408.714 90.545C410.908 90.965 412.611 91.84 413.824 93.17C415.038 94.5 415.644 96.0633 415.644 97.86C415.644 99.9133 414.828 101.71 413.194 103.25C411.584 104.767 409.414 105.525 406.684 105.525C405.121 105.525 403.709 105.292 402.449 104.825C401.189 104.358 400.174 103.74 399.404 102.97C398.634 102.177 398.028 101.348 397.584 100.485C397.164 99.5983 396.908 98.6883 396.814 97.755L401.294 96.565C401.411 97.895 401.924 99.0033 402.834 99.89C403.768 100.777 405.063 101.22 406.719 101.22C407.979 101.22 408.959 100.94 409.659 100.38C410.383 99.82 410.744 99.085 410.744 98.175C410.744 97.4517 410.476 96.8333 409.939 96.32C409.426 95.7833 408.691 95.4217 407.734 95.235L404.269 94.535C402.263 94.115 400.676 93.2867 399.509 92.05C398.343 90.8133 397.759 89.2733 397.759 87.43C397.759 85.2367 398.599 83.3933 400.279 81.9C401.983 80.4067 404.024 79.66 406.404 79.66C407.828 79.66 409.099 79.8583 410.219 80.255C411.339 80.6517 412.238 81.1883 412.914 81.865C413.591 82.5183 414.116 83.195 414.489 83.895C414.863 84.595 415.131 85.33 415.294 86.1ZM425.983 82.635V87.78H429.448V91.91H425.983V99.12C425.983 99.8433 426.147 100.357 426.473 100.66C426.8 100.963 427.313 101.115 428.013 101.115C428.643 101.115 429.122 101.068 429.448 100.975V104.825C428.772 105.105 427.897 105.245 426.823 105.245C425.143 105.245 423.813 104.778 422.833 103.845C421.853 102.888 421.363 101.582 421.363 99.925V91.91H418.248V87.78H419.123C419.987 87.78 420.64 87.535 421.083 87.045C421.55 86.5317 421.783 85.8667 421.783 85.05V82.635H425.983ZM444.363 87.71V92.4C443.897 92.3067 443.43 92.26 442.963 92.26C441.633 92.26 440.56 92.645 439.743 93.415C438.927 94.1617 438.518 95.3983 438.518 97.125V105H433.863V87.78H438.378V90.335C439.218 88.5383 440.852 87.64 443.278 87.64C443.535 87.64 443.897 87.6633 444.363 87.71ZM447.39 100.31C447.39 98.84 447.869 97.6617 448.825 96.775C449.782 95.8883 451.019 95.3283 452.535 95.095L456.77 94.465C457.634 94.3483 458.065 93.94 458.065 93.24C458.065 92.5867 457.809 92.05 457.295 91.63C456.805 91.21 456.094 91 455.16 91C454.18 91 453.399 91.2683 452.815 91.805C452.255 92.3417 451.94 93.0067 451.87 93.8L447.74 92.925C447.904 91.4317 448.639 90.1133 449.945 88.97C451.252 87.8267 452.979 87.255 455.125 87.255C457.692 87.255 459.582 87.8733 460.795 89.11C462.009 90.3233 462.615 91.8867 462.615 93.8V102.27C462.615 103.297 462.685 104.207 462.825 105H458.555C458.439 104.487 458.38 103.798 458.38 102.935C457.284 104.638 455.592 105.49 453.305 105.49C451.532 105.49 450.097 104.977 449 103.95C447.927 102.923 447.39 101.71 447.39 100.31ZM454.285 102.025C455.382 102.025 456.28 101.722 456.98 101.115C457.704 100.485 458.065 99.4583 458.065 98.035V97.265L454.18 97.86C452.757 98.07 452.045 98.7933 452.045 100.03C452.045 100.59 452.244 101.068 452.64 101.465C453.037 101.838 453.585 102.025 454.285 102.025ZM473.513 111.79H468.578L472.638 102.83L465.323 87.78H470.538L475.123 97.86L479.358 87.78H484.328L473.513 111.79ZM494.067 82.635V87.78H497.532V91.91H494.067V99.12C494.067 99.8433 494.23 100.357 494.557 100.66C494.883 100.963 495.397 101.115 496.097 101.115C496.727 101.115 497.205 101.068 497.532 100.975V104.825C496.855 105.105 495.98 105.245 494.907 105.245C493.227 105.245 491.897 104.778 490.917 103.845C489.937 102.888 489.447 101.582 489.447 99.925V91.91H486.332V87.78H487.207C488.07 87.78 488.723 87.535 489.167 87.045C489.633 86.5317 489.867 85.8667 489.867 85.05V82.635H494.067Z" fill="black" fill-opacity="0.8"/>
<path d="M294.16 161H290.268V141.148H302.812V144.816H294.132V149.716H301.86V153.272H294.16V161ZM313.154 147.168V150.92C312.78 150.845 312.407 150.808 312.034 150.808C310.97 150.808 310.111 151.116 309.458 151.732C308.804 152.329 308.478 153.319 308.478 154.7V161H304.754V147.224H308.366V149.268C309.038 147.831 310.344 147.112 312.286 147.112C312.491 147.112 312.78 147.131 313.154 147.168ZM319.332 156.996C320.023 157.687 320.854 158.032 321.824 158.032C322.795 158.032 323.616 157.687 324.288 156.996C324.979 156.305 325.324 155.344 325.324 154.112C325.324 152.88 324.979 151.919 324.288 151.228C323.616 150.537 322.795 150.192 321.824 150.192C320.854 150.192 320.023 150.537 319.332 151.228C318.66 151.919 318.324 152.88 318.324 154.112C318.324 155.344 318.66 156.305 319.332 156.996ZM316.644 148.876C318.026 147.495 319.752 146.804 321.824 146.804C323.896 146.804 325.614 147.495 326.976 148.876C328.358 150.257 329.048 152.003 329.048 154.112C329.048 156.221 328.358 157.967 326.976 159.348C325.614 160.729 323.896 161.42 321.824 161.42C319.752 161.42 318.026 160.729 316.644 159.348C315.282 157.967 314.6 156.221 314.6 154.112C314.6 152.003 315.282 150.257 316.644 148.876ZM335.712 153.076V161H331.988V147.224H335.6V148.932C335.992 148.26 336.552 147.747 337.28 147.392C338.008 147.037 338.773 146.86 339.576 146.86C341.2 146.86 342.432 147.373 343.272 148.4C344.131 149.408 344.56 150.715 344.56 152.32V161H340.836V152.964C340.836 152.143 340.621 151.48 340.192 150.976C339.781 150.472 339.147 150.22 338.288 150.22C337.504 150.22 336.879 150.491 336.412 151.032C335.945 151.573 335.712 152.255 335.712 153.076ZM352.932 143.108V147.224H355.704V150.528H352.932V156.296C352.932 156.875 353.062 157.285 353.324 157.528C353.585 157.771 353.996 157.892 354.556 157.892C355.06 157.892 355.442 157.855 355.704 157.78V160.86C355.162 161.084 354.462 161.196 353.604 161.196C352.26 161.196 351.196 160.823 350.412 160.076C349.628 159.311 349.236 158.265 349.236 156.94V150.528H346.744V147.224H347.444C348.134 147.224 348.657 147.028 349.012 146.636C349.385 146.225 349.572 145.693 349.572 145.04V143.108H352.932ZM366.177 154.336H358.057V151.032H366.177V154.336ZM382.134 161H369.702V141.148H382.134V144.788H373.566V149.324H381.322V152.768H373.566V157.36H382.134V161ZM389.278 153.076V161H385.554V147.224H389.166V148.932C389.558 148.26 390.118 147.747 390.846 147.392C391.574 147.037 392.34 146.86 393.142 146.86C394.766 146.86 395.998 147.373 396.838 148.4C397.697 149.408 398.126 150.715 398.126 152.32V161H394.402V152.964C394.402 152.143 394.188 151.48 393.758 150.976C393.348 150.472 392.713 150.22 391.854 150.22C391.07 150.22 390.445 150.491 389.978 151.032C389.512 151.573 389.278 152.255 389.278 153.076ZM415.038 140.728V158.508C415.038 159.423 415.075 160.253 415.15 161H411.594C411.501 160.533 411.454 160.001 411.454 159.404C411.137 159.983 410.633 160.449 409.942 160.804C409.27 161.159 408.486 161.336 407.59 161.336C405.63 161.336 404.015 160.655 402.746 159.292C401.495 157.911 400.87 156.175 400.87 154.084C400.87 152.049 401.486 150.341 402.718 148.96C403.969 147.579 405.555 146.888 407.478 146.888C409.457 146.888 410.754 147.457 411.37 148.596V140.728H415.038ZM404.622 154.084C404.622 155.297 404.939 156.259 405.574 156.968C406.209 157.659 407.03 158.004 408.038 158.004C409.027 158.004 409.839 157.649 410.474 156.94C411.109 156.231 411.426 155.269 411.426 154.056C411.426 152.861 411.109 151.928 410.474 151.256C409.839 150.565 409.027 150.22 408.038 150.22C407.049 150.22 406.227 150.565 405.574 151.256C404.939 151.947 404.622 152.889 404.622 154.084ZM430.14 157.416H433.22C434.956 157.416 436.384 156.875 437.504 155.792C438.624 154.709 439.184 153.141 439.184 151.088C439.184 149.035 438.624 147.467 437.504 146.384C436.384 145.283 434.965 144.732 433.248 144.732H430.14V157.416ZM433.36 161H426.276V141.148H433.388C436.281 141.148 438.633 142.035 440.444 143.808C442.273 145.581 443.188 148.008 443.188 151.088C443.188 154.149 442.273 156.567 440.444 158.34C438.614 160.113 436.253 161 433.36 161ZM449.056 152.544H455.216C455.178 151.779 454.898 151.135 454.376 150.612C453.872 150.089 453.125 149.828 452.136 149.828C451.24 149.828 450.512 150.108 449.952 150.668C449.392 151.228 449.093 151.853 449.056 152.544ZM455.58 156.128L458.688 157.052C458.314 158.321 457.577 159.367 456.476 160.188C455.393 161.009 454.04 161.42 452.416 161.42C450.437 161.42 448.757 160.757 447.376 159.432C445.994 158.088 445.304 156.296 445.304 154.056C445.304 151.928 445.976 150.192 447.32 148.848C448.664 147.485 450.25 146.804 452.08 146.804C454.208 146.804 455.869 147.439 457.064 148.708C458.277 149.977 458.884 151.723 458.884 153.944C458.884 154.093 458.874 154.261 458.856 154.448C458.856 154.635 458.856 154.784 458.856 154.896L458.828 155.092H448.972C449.009 155.988 449.364 156.735 450.036 157.332C450.708 157.929 451.51 158.228 452.444 158.228C454.03 158.228 455.076 157.528 455.58 156.128ZM474.535 147.224L469.187 161H465.463L459.835 147.224H463.923L467.339 156.464L470.615 147.224H474.535ZM479.106 152.544H485.266C485.229 151.779 484.949 151.135 484.426 150.612C483.922 150.089 483.176 149.828 482.186 149.828C481.29 149.828 480.562 150.108 480.002 150.668C479.442 151.228 479.144 151.853 479.106 152.544ZM485.63 156.128L488.738 157.052C488.365 158.321 487.628 159.367 486.526 160.188C485.444 161.009 484.09 161.42 482.466 161.42C480.488 161.42 478.808 160.757 477.426 159.432C476.045 158.088 475.354 156.296 475.354 154.056C475.354 151.928 476.026 150.192 477.37 148.848C478.714 147.485 480.301 146.804 482.13 146.804C484.258 146.804 485.92 147.439 487.114 148.708C488.328 149.977 488.934 151.723 488.934 153.944C488.934 154.093 488.925 154.261 488.906 154.448C488.906 154.635 488.906 154.784 488.906 154.896L488.878 155.092H479.022C479.06 155.988 479.414 156.735 480.086 157.332C480.758 157.929 481.561 158.228 482.494 158.228C484.081 158.228 485.126 157.528 485.63 156.128ZM495.591 161H491.867V140.728H495.591V161ZM503.274 156.996C503.965 157.687 504.795 158.032 505.766 158.032C506.737 158.032 507.558 157.687 508.23 156.996C508.921 156.305 509.266 155.344 509.266 154.112C509.266 152.88 508.921 151.919 508.23 151.228C507.558 150.537 506.737 150.192 505.766 150.192C504.795 150.192 503.965 150.537 503.274 151.228C502.602 151.919 502.266 152.88 502.266 154.112C502.266 155.344 502.602 156.305 503.274 156.996ZM500.586 148.876C501.967 147.495 503.694 146.804 505.766 146.804C507.838 146.804 509.555 147.495 510.918 148.876C512.299 150.257 512.99 152.003 512.99 154.112C512.99 156.221 512.299 157.967 510.918 159.348C509.555 160.729 507.838 161.42 505.766 161.42C503.694 161.42 501.967 160.729 500.586 159.348C499.223 157.967 498.542 156.221 498.542 154.112C498.542 152.003 499.223 150.257 500.586 148.876ZM519.653 166.32H515.929V147.224H519.541V148.904C519.877 148.344 520.419 147.877 521.165 147.504C521.912 147.112 522.78 146.916 523.769 146.916C525.729 146.916 527.279 147.588 528.417 148.932C529.556 150.257 530.125 151.975 530.125 154.084C530.125 156.193 529.519 157.929 528.305 159.292C527.111 160.655 525.552 161.336 523.629 161.336C521.8 161.336 520.475 160.776 519.653 159.656V166.32ZM525.477 156.968C526.131 156.259 526.457 155.307 526.457 154.112C526.457 152.917 526.131 151.975 525.477 151.284C524.843 150.593 524.031 150.248 523.041 150.248C522.052 150.248 521.231 150.603 520.577 151.312C519.924 152.003 519.597 152.936 519.597 154.112C519.597 155.288 519.924 156.231 520.577 156.94C521.231 157.649 522.052 158.004 523.041 158.004C524.031 158.004 524.843 157.659 525.477 156.968ZM535.79 152.544H541.95C541.913 151.779 541.633 151.135 541.11 150.612C540.606 150.089 539.859 149.828 538.87 149.828C537.974 149.828 537.246 150.108 536.686 150.668C536.126 151.228 535.827 151.853 535.79 152.544ZM542.314 156.128L545.422 157.052C545.049 158.321 544.311 159.367 543.21 160.188C542.127 161.009 540.774 161.42 539.15 161.42C537.171 161.42 535.491 160.757 534.11 159.432C532.729 158.088 532.038 156.296 532.038 154.056C532.038 151.928 532.71 150.192 534.054 148.848C535.398 147.485 536.985 146.804 538.814 146.804C540.942 146.804 542.603 147.439 543.798 148.708C545.011 149.977 545.618 151.723 545.618 153.944C545.618 154.093 545.609 154.261 545.59 154.448C545.59 154.635 545.59 154.784 545.59 154.896L545.562 155.092H535.706C535.743 155.988 536.098 156.735 536.77 157.332C537.442 157.929 538.245 158.228 539.178 158.228C540.765 158.228 541.81 157.528 542.314 156.128ZM556.951 147.168V150.92C556.577 150.845 556.204 150.808 555.831 150.808C554.767 150.808 553.908 151.116 553.255 151.732C552.601 152.329 552.275 153.319 552.275 154.7V161H548.551V147.224H552.163V149.268C552.835 147.831 554.141 147.112 556.083 147.112C556.288 147.112 556.577 147.131 556.951 147.168Z" fill="black" fill-opacity="0.64"/>
<path d="M604.405 119.303V122.684H606.682V125.398H604.405V130.136C604.405 130.611 604.512 130.949 604.727 131.148C604.942 131.347 605.279 131.447 605.739 131.447C606.153 131.447 606.467 131.416 606.682 131.355V133.885C606.237 134.069 605.662 134.161 604.957 134.161C603.853 134.161 602.979 133.854 602.335 133.241C601.691 132.612 601.369 131.754 601.369 130.665V125.398H599.322V122.684H599.897C600.464 122.684 600.894 122.523 601.185 122.201C601.492 121.864 601.645 121.427 601.645 120.89V119.303H604.405ZM612.664 130.711C613.231 131.278 613.914 131.562 614.711 131.562C615.508 131.562 616.183 131.278 616.735 130.711C617.302 130.144 617.586 129.354 617.586 128.342C617.586 127.33 617.302 126.54 616.735 125.973C616.183 125.406 615.508 125.122 614.711 125.122C613.914 125.122 613.231 125.406 612.664 125.973C612.112 126.54 611.836 127.33 611.836 128.342C611.836 129.354 612.112 130.144 612.664 130.711ZM610.456 124.041C611.591 122.906 613.009 122.339 614.711 122.339C616.413 122.339 617.824 122.906 618.943 124.041C620.078 125.176 620.645 126.609 620.645 128.342C620.645 130.075 620.078 131.508 618.943 132.643C617.824 133.778 616.413 134.345 614.711 134.345C613.009 134.345 611.591 133.778 610.456 132.643C609.337 131.508 608.777 130.075 608.777 128.342C608.777 126.609 609.337 125.176 610.456 124.041ZM638.954 117.486L630.789 134.207H628.029L636.171 117.486H638.954ZM643.224 125.168C642.411 125.168 641.729 125.452 641.177 126.019C640.625 126.586 640.349 127.361 640.349 128.342C640.349 129.323 640.625 130.105 641.177 130.688C641.744 131.255 642.434 131.539 643.247 131.539C643.968 131.539 644.543 131.355 644.972 130.987C645.401 130.604 645.693 130.151 645.846 129.63L648.537 130.527C648.261 131.57 647.663 132.467 646.743 133.218C645.823 133.969 644.658 134.345 643.247 134.345C641.56 134.345 640.142 133.778 638.992 132.643C637.857 131.493 637.29 130.059 637.29 128.342C637.29 126.609 637.85 125.176 638.969 124.041C640.104 122.906 641.499 122.339 643.155 122.339C644.596 122.339 645.777 122.715 646.697 123.466C647.617 124.202 648.207 125.099 648.468 126.157L645.731 127.077C645.363 125.804 644.527 125.168 643.224 125.168ZM654.17 130.711C654.738 131.278 655.42 131.562 656.217 131.562C657.015 131.562 657.689 131.278 658.241 130.711C658.809 130.144 659.092 129.354 659.092 128.342C659.092 127.33 658.809 126.54 658.241 125.973C657.689 125.406 657.015 125.122 656.217 125.122C655.42 125.122 654.738 125.406 654.17 125.973C653.618 126.54 653.342 127.33 653.342 128.342C653.342 129.354 653.618 130.144 654.17 130.711ZM651.962 124.041C653.097 122.906 654.515 122.339 656.217 122.339C657.919 122.339 659.33 122.906 660.449 124.041C661.584 125.176 662.151 126.609 662.151 128.342C662.151 130.075 661.584 131.508 660.449 132.643C659.33 133.778 657.919 134.345 656.217 134.345C654.515 134.345 653.097 133.778 651.962 132.643C650.843 131.508 650.283 130.075 650.283 128.342C650.283 126.609 650.843 125.176 651.962 124.041ZM675.813 117.348V131.953C675.813 132.704 675.843 133.387 675.905 134H672.984C672.907 133.617 672.869 133.18 672.869 132.689C672.608 133.164 672.194 133.548 671.627 133.839C671.075 134.13 670.431 134.276 669.695 134.276C668.085 134.276 666.758 133.716 665.716 132.597C664.688 131.462 664.175 130.036 664.175 128.319C664.175 126.648 664.681 125.245 665.693 124.11C666.72 122.975 668.023 122.408 669.603 122.408C671.228 122.408 672.294 122.876 672.8 123.811V117.348H675.813ZM667.257 128.319C667.257 129.316 667.517 130.105 668.039 130.688C668.56 131.255 669.235 131.539 670.063 131.539C670.875 131.539 671.542 131.248 672.064 130.665C672.585 130.082 672.846 129.293 672.846 128.296C672.846 127.315 672.585 126.548 672.064 125.996C671.542 125.429 670.875 125.145 670.063 125.145C669.25 125.145 668.575 125.429 668.039 125.996C667.517 126.563 667.257 127.338 667.257 128.319ZM681.822 127.054H686.882C686.852 126.425 686.622 125.896 686.192 125.467C685.778 125.038 685.165 124.823 684.352 124.823C683.616 124.823 683.018 125.053 682.558 125.513C682.098 125.973 681.853 126.487 681.822 127.054ZM687.181 129.998L689.734 130.757C689.428 131.8 688.822 132.658 687.917 133.333C687.028 134.008 685.916 134.345 684.582 134.345C682.957 134.345 681.577 133.801 680.442 132.712C679.308 131.608 678.74 130.136 678.74 128.296C678.74 126.548 679.292 125.122 680.396 124.018C681.5 122.899 682.804 122.339 684.306 122.339C686.054 122.339 687.419 122.86 688.4 123.903C689.397 124.946 689.895 126.379 689.895 128.204C689.895 128.327 689.888 128.465 689.872 128.618C689.872 128.771 689.872 128.894 689.872 128.986L689.849 129.147H681.753C681.784 129.883 682.075 130.496 682.627 130.987C683.179 131.478 683.839 131.723 684.605 131.723C685.909 131.723 686.767 131.148 687.181 129.998ZM604.405 148.303V151.684H606.682V154.398H604.405V159.136C604.405 159.611 604.512 159.949 604.727 160.148C604.942 160.347 605.279 160.447 605.739 160.447C606.153 160.447 606.467 160.416 606.682 160.355V162.885C606.237 163.069 605.662 163.161 604.957 163.161C603.853 163.161 602.979 162.854 602.335 162.241C601.691 161.612 601.369 160.754 601.369 159.665V154.398H599.322V151.684H599.897C600.464 151.684 600.894 151.523 601.185 151.201C601.492 150.864 601.645 150.427 601.645 149.89V148.303H604.405ZM612.664 159.711C613.231 160.278 613.914 160.562 614.711 160.562C615.508 160.562 616.183 160.278 616.735 159.711C617.302 159.144 617.586 158.354 617.586 157.342C617.586 156.33 617.302 155.54 616.735 154.973C616.183 154.406 615.508 154.122 614.711 154.122C613.914 154.122 613.231 154.406 612.664 154.973C612.112 155.54 611.836 156.33 611.836 157.342C611.836 158.354 612.112 159.144 612.664 159.711ZM610.456 153.041C611.591 151.906 613.009 151.339 614.711 151.339C616.413 151.339 617.824 151.906 618.943 153.041C620.078 154.176 620.645 155.609 620.645 157.342C620.645 159.075 620.078 160.508 618.943 161.643C617.824 162.778 616.413 163.345 614.711 163.345C613.009 163.345 611.591 162.778 610.456 161.643C609.337 160.508 608.777 159.075 608.777 157.342C608.777 155.609 609.337 154.176 610.456 153.041ZM638.954 146.486L630.789 163.207H628.029L636.171 146.486H638.954ZM648.928 146.348V160.953C648.928 161.704 648.959 162.387 649.02 163H646.099C646.022 162.617 645.984 162.18 645.984 161.689C645.723 162.164 645.309 162.548 644.742 162.839C644.19 163.13 643.546 163.276 642.81 163.276C641.2 163.276 639.874 162.716 638.831 161.597C637.804 160.462 637.29 159.036 637.29 157.319C637.29 155.648 637.796 154.245 638.808 153.11C639.835 151.975 641.139 151.408 642.718 151.408C644.343 151.408 645.409 151.876 645.915 152.811V146.348H648.928ZM640.372 157.319C640.372 158.316 640.633 159.105 641.154 159.688C641.675 160.255 642.35 160.539 643.178 160.539C643.991 160.539 644.658 160.248 645.179 159.665C645.7 159.082 645.961 158.293 645.961 157.296C645.961 156.315 645.7 155.548 645.179 154.996C644.658 154.429 643.991 154.145 643.178 154.145C642.365 154.145 641.691 154.429 641.154 154.996C640.633 155.563 640.372 156.338 640.372 157.319ZM654.937 156.054H659.997C659.967 155.425 659.737 154.896 659.307 154.467C658.893 154.038 658.28 153.823 657.467 153.823C656.731 153.823 656.133 154.053 655.673 154.513C655.213 154.973 654.968 155.487 654.937 156.054ZM660.296 158.998L662.849 159.757C662.543 160.8 661.937 161.658 661.032 162.333C660.143 163.008 659.031 163.345 657.697 163.345C656.072 163.345 654.692 162.801 653.557 161.712C652.423 160.608 651.855 159.136 651.855 157.296C651.855 155.548 652.407 154.122 653.511 153.018C654.615 151.899 655.919 151.339 657.421 151.339C659.169 151.339 660.534 151.86 661.515 152.903C662.512 153.946 663.01 155.379 663.01 157.204C663.01 157.327 663.003 157.465 662.987 157.618C662.987 157.771 662.987 157.894 662.987 157.986L662.964 158.147H654.868C654.899 158.883 655.19 159.496 655.742 159.987C656.294 160.478 656.954 160.723 657.72 160.723C659.024 160.723 659.882 160.148 660.296 158.998ZM676.327 151.684L671.934 163H668.875L664.252 151.684H667.61L670.416 159.274L673.107 151.684H676.327ZM680.542 156.054H685.602C685.571 155.425 685.341 154.896 684.912 154.467C684.498 154.038 683.885 153.823 683.072 153.823C682.336 153.823 681.738 154.053 681.278 154.513C680.818 154.973 680.573 155.487 680.542 156.054ZM685.901 158.998L688.454 159.757C688.147 160.8 687.542 161.658 686.637 162.333C685.748 163.008 684.636 163.345 683.302 163.345C681.677 163.345 680.297 162.801 679.162 161.712C678.027 160.608 677.46 159.136 677.46 157.296C677.46 155.548 678.012 154.122 679.116 153.018C680.22 151.899 681.523 151.339 683.026 151.339C684.774 151.339 686.139 151.86 687.12 152.903C688.117 153.946 688.615 155.379 688.615 157.204C688.615 157.327 688.607 157.465 688.592 157.618C688.592 157.771 688.592 157.894 688.592 157.986L688.569 158.147H680.473C680.504 158.883 680.795 159.496 681.347 159.987C681.899 160.478 682.558 160.723 683.325 160.723C684.628 160.723 685.487 160.148 685.901 158.998ZM694.543 163H691.484V146.348H694.543V163ZM701.314 159.711C701.881 160.278 702.564 160.562 703.361 160.562C704.158 160.562 704.833 160.278 705.385 159.711C705.952 159.144 706.236 158.354 706.236 157.342C706.236 156.33 705.952 155.54 705.385 154.973C704.833 154.406 704.158 154.122 703.361 154.122C702.564 154.122 701.881 154.406 701.314 154.973C700.762 155.54 700.486 156.33 700.486 157.342C700.486 158.354 700.762 159.144 701.314 159.711ZM699.106 153.041C700.241 151.906 701.659 151.339 703.361 151.339C705.063 151.339 706.474 151.906 707.593 153.041C708.728 154.176 709.295 155.609 709.295 157.342C709.295 159.075 708.728 160.508 707.593 161.643C706.474 162.778 705.063 163.345 703.361 163.345C701.659 163.345 700.241 162.778 699.106 161.643C697.987 160.508 697.427 159.075 697.427 157.342C697.427 155.609 697.987 154.176 699.106 153.041ZM715.229 167.37H712.17V151.684H715.137V153.064C715.413 152.604 715.857 152.221 716.471 151.914C717.084 151.592 717.797 151.431 718.61 151.431C720.22 151.431 721.492 151.983 722.428 153.087C723.363 154.176 723.831 155.586 723.831 157.319C723.831 159.052 723.332 160.478 722.336 161.597C721.354 162.716 720.074 163.276 718.495 163.276C716.992 163.276 715.903 162.816 715.229 161.896V167.37ZM720.013 159.688C720.549 159.105 720.818 158.323 720.818 157.342C720.818 156.361 720.549 155.586 720.013 155.019C719.491 154.452 718.824 154.168 718.012 154.168C717.199 154.168 716.524 154.459 715.988 155.042C715.451 155.609 715.183 156.376 715.183 157.342C715.183 158.308 715.451 159.082 715.988 159.665C716.524 160.248 717.199 160.539 718.012 160.539C718.824 160.539 719.491 160.255 720.013 159.688Z" fill="black" fill-opacity="0.64"/>
<line x1="271" y1="62" x2="271" y2="143" stroke="#FF9431" stroke-width="6"/>
<line x1="588.5" y1="111" x2="588.5" y2="166" stroke="#FF9431" stroke-width="3"/>
<line x1="425" y1="59" x2="290" y2="59" stroke="#FF9431" stroke-width="6"/>
<line x1="498" y1="125.5" x2="290" y2="125.5" stroke="#FF9431" stroke-opacity="0.64" stroke-width="3"/>
</svg>
