<svg width="22" height="22" viewBox="0 0 22 22" fill="none" xmlns="http://www.w3.org/2000/svg">
<path d="M10.7787 -5.73093e-07C7.9154 0.0135725 5.1739 1.17849 3.15393 3.23992C1.13397 5.30135 -3.11784e-05 8.09149 6.42929e-10 11C6.42934e-10 13.9174 1.14094 16.7153 3.17182 18.7782C5.2027 20.8411 7.95717 22 10.8293 22C13.7014 22 16.4558 20.8411 18.4867 18.7782C20.5176 16.7153 21.6585 13.9174 21.6585 11C21.6585 8.08262 20.5176 5.28473 18.4867 3.22182C16.4558 1.15892 13.7014 -5.73093e-07 10.8293 -5.73093e-07C10.8124 -4.04991e-05 10.7956 -4.04991e-05 10.7787 -5.73093e-07V-5.73093e-07ZM15.2566 6.622C15.3469 6.62017 15.5463 6.64308 15.6763 6.75033C15.7626 6.8265 15.8177 6.93282 15.8306 7.04825C15.845 7.1335 15.8631 7.32875 15.8486 7.48092C15.6862 9.22075 14.9805 13.4411 14.6213 15.389C14.4697 16.214 14.171 16.4899 13.8813 16.5165C13.2532 16.5761 12.7758 16.0948 12.1667 15.6897C11.2137 15.0544 10.675 14.6593 9.74995 14.0397C8.68056 13.3247 9.37363 12.9305 9.98278 12.2888C10.1425 12.1202 12.913 9.55992 12.9671 9.328C12.9735 9.29867 12.9798 9.1905 12.9166 9.13367C12.8534 9.07683 12.7596 9.09608 12.6919 9.11167C12.5962 9.13367 11.0738 10.1567 8.12466 12.1779C7.69149 12.4804 7.30073 12.6271 6.94968 12.6179C6.56344 12.6106 5.81983 12.397 5.26663 12.2146C4.588 11.99 4.04924 11.8717 4.09617 11.4913C4.12054 11.2933 4.38946 11.0907 4.90205 10.8836C8.05878 9.48658 10.1633 8.56533 11.2173 8.12075C14.2242 6.85025 14.8496 6.62933 15.2566 6.622V6.622Z" fill="#1C1C1C"/>
</svg>
